<svg id="SvgjsSvg1034" width="288" height="288" xmlns="http://www.w3.org/2000/svg" version="1.1" xmlns:xlink="http://www.w3.org/1999/xlink" xmlns:svgjs="http://svgjs.com/svgjs"><circle id="SvgjsCircle1040" r="144" cx="144" cy="144" transform="matrix(0.87,0,0,0.87,18.72,18.72)" fill="#373737"></circle><defs id="SvgjsDefs1035"></defs><g id="SvgjsG1036" transform="matrix(0.67,0,0,0.67,47.51734004974365,47.523004875183105)"><svg xmlns="http://www.w3.org/2000/svg" data-name="Layer 1" viewBox="0 0 24 24" width="288" height="288"><path d="M20.91887,10.653c-.31445-.16992-3.01074-1.73438-4.02246-2.32324l-.00293-.002L4.6386,1.25262a1.679,1.679,0,0,0-1.40711-.1593c-.02618.0094-.05078.01886-.07623.03051a1.41835,1.41835,0,0,0-.17291.06922,1.51864,1.51864,0,0,0-.73828,1.36426V21.54266a1.43542,1.43542,0,0,0,.69238,1.2705,1.30761,1.30761,0,0,0,.15479.06373c.02893.01336.05651.025.08636.03552a1.37893,1.37893,0,0,0,.44635.0824,1.67263,1.67263,0,0,0,.83106-.23145c.38867-.22559,12.43847-7.18262,12.43847-7.18262L20.914,13.25945a1.52522,1.52522,0,0,0,.8418-1.334A1.49078,1.49078,0,0,0,20.91887,10.653ZM4.24407,19.839V4.10186l7.94012,7.85907Zm5.018-2.16168,4.34351-4.30957,1.14954,1.13782C13.49047,15.23583,11.35381,16.4696,9.26207,17.67736Zm4.3418-7.125L9.206,6.19933l5.55365,3.2063ZM16.55065,13.469l-1.52539-1.50977L16.553,10.44341c.72027.41828,1.84283,1.06934,2.6159,1.51429Z" fill="#ffda1c" class="color000 svgShape"></path></svg></g></svg>