<svg id="SvgjsSvg1112" width="288" height="288" xmlns="http://www.w3.org/2000/svg" version="1.1" xmlns:xlink="http://www.w3.org/1999/xlink" xmlns:svgjs="http://svgjs.com/svgjs"><circle id="SvgjsCircle1118" r="144" cx="144" cy="144" transform="matrix(0.7916,0,0,0.7916,30.009600000000006,30.009600000000006)" fill="#373737"></circle><defs id="SvgjsDefs1113"></defs><g id="SvgjsG1114" transform="matrix(0.8,0,0,0.8,28.77119979858398,28.782461547851554)"><svg xmlns="http://www.w3.org/2000/svg" viewBox="0 0 40 40" width="288" height="288"><path d="M30.6,18.37c.41.06,2.27-.13,2.27-1.19,0-1.85-3.07-3.42-3.07-3.42a39.23,39.23,0,0,0,1.76-4c.46-1.39.19-1.7.19-1.7-.1,1.31-2.59,5.41-2.59,5.41A17.64,17.64,0,0,0,24,12.2C22.93,10,20.3,5.61,18,6s-2.4,5.24-2.4,5.24c-.79-1.66-2.14-1.85-2.84-.86S12,14.28,12,14.28A20.5,20.5,0,0,0,6.56,15a2.13,2.13,0,0,0-.55.44A23.12,23.12,0,0,1,12.09,15,19.68,19.68,0,0,0,13.49,20c-1.4,2.27-3.83,6.65-2.23,8.34s5.61-.51,5.65-.54a6.07,6.07,0,0,0-.51,1.57,1.24,1.24,0,0,0,.9,1.24,6.41,6.41,0,0,0,4-1.24A33.15,33.15,0,0,0,24,33.14a2.34,2.34,0,0,0,1.25.86c-1-.7-3.39-5-3.39-5a15.92,15.92,0,0,0,3.68-3.77c4,.19,8.41-.35,8.41-2.62S30.6,18.37,30.6,18.37Zm.22-1.06c-.29.71-1.28.55-1.28.55A13.42,13.42,0,0,0,27.88,17l1.22-1.95S31.22,16.33,30.82,17.31ZM19.47,9.13c1.41-.19,3.26,2.94,3.26,2.94a15.94,15.94,0,0,0-2.59.19,8,8,0,0,0-2.52.93C17.65,12.07,18.07,9.32,19.47,9.13Zm-4.81,2.38c.58,0,1,.9,1,.9l.1,1.85-2.27-.06C13.48,12.5,14.09,11.51,14.66,11.51ZM13.17,25.56c-.93-.89.9-4.32.9-4.32s1.63,3.11,3.55,3.81C17.62,25.05,14.55,26.87,13.17,25.56Zm4.54,2.94c-.41-.51.16-1.28.16-1.28l1.6-1.12,1.09,2.08S18.61,29.4,17.71,28.5Zm7-3.75c-2.68,2.84-3.42,2.94-3.42,2.94l-.94-1.91s2.24.13,3.35-1.05a6.57,6.57,0,0,1-3.22.57s4.79-4.25,5.91-6.26l-.91-.66a33,33,0,0,1-7.26,6.37,7.3,7.3,0,0,1-2.83-2.93,15.85,15.85,0,0,1-1.93-6.76l2.09.21a5.06,5.06,0,0,0-.7,3.45A5.67,5.67,0,0,1,16,15.62s1.12,5.94,2.49,8.25l1-.42s-2-6-1.85-9.56a8.16,8.16,0,0,1,4-1,13.09,13.09,0,0,1,2.75.32,22.62,22.62,0,0,1,4.09,1.38l-1.21,1.76S25.93,14.24,24.52,14a6.66,6.66,0,0,1,2.18,2.56,44.32,44.32,0,0,0-8.44-2.08l-.1,1.12a33,33,0,0,1,9.11,3.16A8.82,8.82,0,0,1,24.73,24.75Zm5.8-2.16c-.35,1.6-4.22,1.53-4.22,1.53s1.31-1.31,1.63-5C27.94,19.13,30.89,21,30.53,22.59Z" fill="#ffda1c" class="color000 svgShape"></path></svg></g></svg>