<svg width="156" height="155" viewBox="0 0 156 155" fill="none" xmlns="http://www.w3.org/2000/svg">
<path d="M152.368 81.3L115.305 141.554C113.341 144.747 109.143 145.754 105.93 143.801L5.8982 83.0186C2.68478 81.0661 1.6724 76.8941 3.63695 73.7003L40.6997 13.4467C42.6642 10.2528 46.8618 9.24663 50.0752 11.1992L150.107 71.9817C153.32 73.9342 154.332 78.1062 152.368 81.3Z" fill="white"/>
<path d="M23.557 93.7608L5.8984 83.0308C2.66888 81.0685 1.68066 76.8932 3.63716 73.7125L40.7024 13.4547C42.6767 10.2451 46.8484 9.2449 50.0779 11.2073L67.7366 21.9372C64.5365 19.9928 60.3353 20.9751 58.361 24.1847L21.2958 84.4424C19.3393 87.6231 20.357 91.8163 23.557 93.7608Z" fill="#FFDA1C"/>
<path d="M143.444 42.1891V112.811C143.444 116.554 140.391 119.589 136.625 119.589H19.3801C15.6138 119.589 12.5605 116.554 12.5605 112.811V42.1891C12.5605 38.4457 15.6138 35.4111 19.3801 35.4111H136.625C140.391 35.4111 143.444 38.4458 143.444 42.1891Z" fill="white"/>
<path d="M40.093 119.604H19.3957C15.6105 119.604 12.5762 116.554 12.5762 112.826V42.1989C12.5762 38.4369 15.6105 35.4209 19.3957 35.4209H40.093C36.3423 35.4209 33.2734 38.4369 33.2734 42.1989V112.826C33.2734 116.554 36.3423 119.604 40.093 119.604Z" fill="#FFDA1C"/>
<path d="M143.443 58.4314H12.5762V71.8166H143.443V58.4314Z" fill="#FFDA1C"/>
<path d="M46.6737 58.4314H12.5762V71.8166H46.6737V58.4314Z" fill="#D4B100"/>
<path d="M65.9238 35.4099H52.4565V119.59H65.9238V35.4099Z" fill="#FFDA1C"/>
<path d="M59.1902 35.4124H52.4565V119.592H59.1902V35.4124Z" fill="#D4B100"/>
<path d="M71.0182 55.4255L93.8504 78.1185L82.5947 80.4245L80.277 91.6091L57.4424 68.9162L71.0182 55.4255Z" fill="#FFDA1C"/>
<path d="M57.4443 68.909L63.0059 63.3813L82.177 82.4356L80.2813 91.6067L57.4443 68.909Z" fill="#D4B100"/>
<path d="M60.9393 68.9162L38.1047 91.6091L35.787 80.4245L24.5312 78.1185L47.3634 55.4255L60.9393 68.9162Z" fill="#FFDA1C"/>
<path d="M47.3707 55.4255L52.9322 60.9555L33.7611 80.0098L24.5337 78.1257L47.3707 55.4255Z" fill="#D4B100"/>
<path d="M92.8678 55.3222L91.2047 59.3128C87.5093 68.18 77.2812 72.3908 68.3596 68.7179L64.3445 67.0649C61.4699 65.8815 60.1048 62.606 61.2956 59.7489L62.9586 55.7584C66.6541 46.8912 76.8822 42.6804 85.8038 46.3533L89.8189 48.0062C92.6935 49.1897 94.0585 52.4652 92.8678 55.3222Z" fill="#FFDA1C"/>
<path d="M70.3165 58.7965L68.6565 62.7798C67.6432 65.2112 68.4832 67.9512 70.547 69.4371C69.8012 69.2514 69.0769 69.0137 68.3482 68.7136L64.3406 67.0638C61.478 65.8853 60.1058 62.5931 61.2916 59.7478L62.9517 55.7645C66.6491 46.8925 76.8805 42.6801 85.8071 46.3551L89.8149 48.0051C90.2314 48.1766 90.626 48.3997 90.9733 48.6638C82.6417 46.4157 73.7122 50.6487 70.3165 58.7965Z" fill="#D4B100"/>
<path d="M25.5123 55.3222L27.1754 59.3128C30.8709 68.18 41.099 72.3908 50.0206 68.7179L54.0356 67.0649C56.9102 65.8815 58.2753 62.606 57.0846 59.7489L55.4215 55.7584C51.7261 46.8912 41.498 42.6804 32.5764 46.3533L28.5613 48.0062C25.6867 49.1897 24.3217 52.4652 25.5123 55.3222Z" fill="#FFDA1C"/>
<path d="M55.1911 66.408C54.8439 66.6723 54.4489 66.8954 54.0327 67.0667L50.0249 68.7167C41.0986 72.3915 30.867 68.1794 27.1695 59.3074L25.5094 55.324C24.3237 52.4788 25.6954 49.1867 28.5584 48.008L32.5663 46.3581C33.2947 46.0582 34.019 45.8206 34.7648 45.6348C32.701 47.1208 31.861 49.8606 32.8743 52.292L34.5344 56.2755C37.9299 64.4231 46.8591 68.6563 55.1911 66.408Z" fill="#D4B100"/>
<path d="M67.4434 64.1793C67.4434 68.7386 63.7565 72.4033 59.2124 72.4033C54.6249 72.4033 50.938 68.7386 50.938 64.1793C50.938 59.6627 54.6249 55.9983 59.2124 55.9983C63.7565 55.9983 67.4434 59.6627 67.4434 64.1793Z" fill="#FFDA1C"/>
<path d="M62.3267 71.8012C61.3662 72.1787 60.3167 72.4006 59.2221 72.4006C54.6217 72.4006 50.9368 68.7383 50.9368 64.1878C50.9368 59.6598 54.6217 55.9973 59.2221 55.9973C60.3167 55.9973 61.3663 56.2194 62.3267 56.5967C59.2892 57.7952 57.1453 60.7474 57.1453 64.1878C57.1453 67.6505 59.2892 70.6027 62.3267 71.8012Z" fill="#D4B100"/>
<path d="M151.05 70.4471L145.253 66.9247V42.1907C145.253 37.4686 141.394 33.6093 136.618 33.6093H90.4233L51.019 9.66625C46.9586 7.19896 41.6369 8.47474 39.1556 12.5081L26.1768 33.6093H19.3825C14.6314 33.6093 10.7485 37.4686 10.7485 42.1907V58.6929L2.09477 72.7623C-0.38766 76.794 0.875333 82.0743 4.95522 84.551L10.7485 88.0712V112.808C10.7485 117.53 14.6314 121.39 19.3825 121.39H65.5809L104.987 145.334C106.359 146.168 107.902 146.596 109.47 146.596C110.15 146.596 110.834 146.516 111.51 146.355C113.751 145.816 115.647 144.445 116.848 142.492L129.828 121.39H136.618C141.394 121.39 145.253 117.53 145.253 112.808V96.3145L153.911 82.2382C156.392 78.2048 155.109 72.9144 151.05 70.4471ZM141.635 42.1907V56.6336H94.2794L94.5391 56.011C96.1089 52.2421 94.3024 47.9068 90.5117 46.3431L86.4972 44.6905C81.7349 42.7335 76.4921 42.7312 71.7298 44.6928C70.2902 45.2852 68.9612 46.0529 67.733 46.9424V37.205H136.618C139.392 37.2049 141.635 39.4342 141.635 42.1907ZM54.2657 117.791V78.0907L58.2366 74.1435C59.4465 74.2296 59.4338 74.1821 60.1438 74.1431L64.1153 78.0904V117.791H54.2657ZM91.197 54.6345L89.5342 58.6234C87.9315 62.4694 84.9191 65.4634 81.0506 67.0552C77.181 68.6517 72.9204 68.6517 69.0531 67.0552L68.8417 66.9683C68.8434 66.9628 68.8464 66.9579 68.8478 66.9524C69.325 65.357 69.338 63.7043 69.1372 62.7575L80.6173 58.0354C81.5337 57.6518 81.968 56.5971 81.582 55.6862C81.1961 54.7513 80.135 54.3438 79.2183 54.7035L68.0038 59.3298C67.236 57.9706 66.1564 56.8272 64.8869 55.9421C67.5007 50.2612 73.1612 46.8277 79.1335 46.8277C81.1295 46.8277 83.1574 47.2093 85.1122 48.0145L89.1267 49.6649C91.0745 50.4678 92.0037 52.6986 91.197 54.6345ZM59.2249 70.5959C55.6556 70.5959 52.7613 67.7434 52.7372 64.1957V64.1718C52.7372 60.6545 55.6592 57.7956 59.2249 57.7956C62.7688 57.7956 65.6403 60.6999 65.6403 64.1718V64.1957C65.6162 67.7434 62.746 70.5959 59.2249 70.5959ZM54.2657 50.3421V37.209H64.1153V50.3421C63.0931 51.6004 62.2399 53.002 61.5543 54.5096C60.8097 54.2957 60.0172 54.2 59.2249 54.2C58.405 54.2 57.5848 54.296 56.8373 54.5116L56.8288 54.5144C56.1428 53.005 55.289 51.6018 54.2657 50.3421ZM53.5129 55.9477L53.5091 55.9498C52.2308 56.8368 51.1697 57.9874 50.3978 59.3297L39.1592 54.7034C38.2424 54.3438 37.1814 54.7513 36.7957 55.6861C36.4094 56.597 36.8437 57.6517 37.7843 58.0353L49.2402 62.7575C49.1436 63.2129 49.1195 63.6924 49.1195 64.1718C49.1195 65.1534 49.2643 66.0868 49.5287 66.973L49.3291 67.0552C41.346 70.3418 32.1535 66.5613 28.8468 58.6233L27.184 54.6345C26.3773 52.6986 27.3064 50.4677 29.2542 49.6671L33.2687 48.0145C41.0767 44.7968 50.0304 48.3569 53.5129 55.9477ZM25.7423 60.4993C27.1369 63.5944 29.286 66.2103 31.9928 68.1591L29.8477 70.2912H14.3844V60.4993L25.7423 60.4993ZM35.2195 70.0356C35.4632 70.1477 35.6973 70.2742 35.9466 70.3769C40.557 72.276 45.7906 72.4025 50.714 70.3793L51.1721 70.1907C52.0158 71.3158 53.0993 72.2499 54.3278 72.9442L39.1992 87.9804L37.5576 80.0612C37.4128 79.3589 36.8593 78.8088 36.1515 78.6637L28.1826 77.0297L35.2195 70.0356ZM64.0517 72.9427C65.2806 72.2716 66.3645 71.3379 67.2319 70.2123L67.238 70.2022L67.6681 70.3793C70.0493 71.3577 72.5506 71.8493 75.0518 71.8493C77.5531 71.8493 80.0543 71.3577 82.4355 70.3769C82.6845 70.2743 82.9183 70.1478 83.1618 70.0359L90.1983 77.0297L82.2306 78.6636C81.5228 78.8088 80.9693 79.3589 80.8245 80.0611L79.1817 87.9803L64.0517 72.9427ZM86.3885 68.1594C89.1751 66.1531 91.3772 63.444 92.7674 60.2292H141.634V70.0211H88.2618L86.3885 68.1594ZM42.2422 14.3855C43.1866 12.8498 44.8377 12.0024 46.5264 12.0024C47.4167 12.0024 48.3187 12.2389 49.1325 12.7328L83.4898 33.6093H30.418L42.2422 14.3855ZM19.3825 37.2049H50.6481V46.9424C49.4198 46.053 48.0909 45.2852 46.6512 44.6928C41.8889 42.7312 36.6461 42.7335 31.8839 44.6905L27.8693 46.3455C24.0786 47.9068 22.2721 52.2421 23.8419 56.011L24.214 56.9037H14.3662V42.1907C14.3662 39.4342 16.6089 37.2049 19.3825 37.2049ZM6.84177 81.4844C4.47829 80.0459 3.73453 76.983 5.18132 74.6397L10.7485 65.5884V83.8583L6.84177 81.4844ZM14.3662 112.808V73.8868H26.2301L23.2519 76.8471C22.2359 77.8569 22.7575 79.59 24.1657 79.8786L34.2556 81.9455L36.3341 91.9739C36.6258 93.383 38.3728 93.8873 39.3841 92.8821L50.6481 81.6865V117.794H19.3825C16.6089 117.794 14.3662 115.565 14.3662 112.808ZM113.763 140.615C113.064 141.75 111.963 142.546 110.662 142.86C109.363 143.169 108.016 142.963 106.874 142.268L72.5141 121.39H125.588L113.763 140.615ZM136.618 117.794H67.733V81.6863L78.9969 92.8821C80.0083 93.8873 81.7552 93.3829 82.0469 91.9738L84.1266 81.9455L94.2153 79.8785C95.6223 79.5902 96.1459 77.8577 95.1291 76.8471L91.8789 73.6167H141.635V112.808C141.635 115.565 139.392 117.794 136.618 117.794ZM150.826 80.3608L145.253 89.4211V71.1383L149.162 73.5137C151.519 74.9487 152.266 78.0199 150.826 80.3608Z" fill="#4F4B32"/>
<path d="M128.695 93.4979H102.503C101.505 93.4979 100.695 94.3031 100.695 95.2957C100.695 96.2882 101.505 97.0935 102.503 97.0935H128.695C129.694 97.0935 130.504 96.2882 130.504 95.2957C130.504 94.3031 129.694 93.4979 128.695 93.4979ZM128.695 103.198H102.503C101.505 103.198 100.695 104.004 100.695 104.996C100.695 105.989 101.505 106.794 102.503 106.794H128.695C129.694 106.794 130.504 105.989 130.504 104.996C130.504 104.004 129.694 103.198 128.695 103.198ZM2.63548 9.24033H5.70554V12.2928C5.70554 13.2854 6.51575 14.0906 7.51436 14.0906C8.51298 14.0906 9.32318 13.2854 9.32318 12.2928V9.24033H12.3944C13.393 9.24033 14.2032 8.43506 14.2032 7.44253C14.2032 6.45001 13.393 5.64474 12.3944 5.64474H9.32318V2.59223C9.32318 1.5997 8.51298 0.794434 7.51436 0.794434C6.51575 0.794434 5.70554 1.5997 5.70554 2.59223V5.64474H2.63548C1.63687 5.64474 0.82666 6.45001 0.82666 7.44253C0.82666 8.43506 1.63687 9.24033 2.63548 9.24033ZM139.023 144.543H135.953V141.493C135.953 140.5 135.142 139.695 134.144 139.695C133.145 139.695 132.335 140.5 132.335 141.493V144.543H129.264C128.265 144.543 127.455 145.348 127.455 146.341C127.455 147.333 128.265 148.139 129.264 148.139H132.335V151.191C132.335 152.184 133.145 152.989 134.144 152.989C135.142 152.989 135.953 152.184 135.953 151.191V148.139H139.023C140.021 148.139 140.831 147.333 140.831 146.341C140.831 145.348 140.021 144.543 139.023 144.543ZM8.91572 141.022C5.27393 141.022 2.28337 143.994 2.28337 147.614C2.28337 151.257 5.27393 154.205 8.91572 154.205C12.5816 154.205 15.5481 151.257 15.5481 147.614C15.5481 143.994 12.5816 141.022 8.91572 141.022ZM8.91572 150.61C7.25174 150.61 5.90101 149.268 5.90101 147.614C5.90101 145.96 7.25174 144.617 8.91572 144.617C10.5797 144.617 11.9304 145.96 11.9304 147.614C11.9304 149.268 10.5797 150.61 8.91572 150.61ZM116.504 22.3672C120.17 22.3672 123.137 19.4188 123.137 15.7992C123.137 12.1557 120.17 9.18342 116.504 9.18342C112.839 9.18342 109.872 12.1557 109.872 15.7992C109.872 19.4188 112.839 22.3672 116.504 22.3672ZM116.504 12.779C118.169 12.779 119.519 14.1454 119.519 15.7992C119.519 17.4532 118.169 18.7717 116.504 18.7717C114.84 18.7717 113.49 17.4532 113.49 15.7992C113.49 14.1453 114.84 12.779 116.504 12.779ZM19.9453 24.9687C20.9439 24.9687 21.7541 24.1634 21.7541 23.1709V22.4944C21.7541 21.5018 20.9439 20.6966 19.9453 20.6966C18.9467 20.6966 18.1365 21.5018 18.1365 22.4944V23.1709C18.1365 24.1634 18.9467 24.9687 19.9453 24.9687ZM69.8116 9.57742C70.8102 9.57742 71.6204 8.77216 71.6204 7.77963V7.10311C71.6204 6.11058 70.8102 5.30531 69.8116 5.30531C68.813 5.30531 68.0028 6.11058 68.0028 7.10311V7.77963C68.0028 8.77216 68.813 9.57742 69.8116 9.57742ZM90.9734 23.0539C91.972 23.0539 92.7822 22.2486 92.7822 21.2561V20.5795C92.7822 19.587 91.972 18.7817 90.9734 18.7817C89.9748 18.7817 89.1646 19.587 89.1646 20.5795V21.2561C89.1646 22.2486 89.9748 23.0539 90.9734 23.0539ZM150.98 41.0341C151.979 41.0341 152.789 40.2288 152.789 39.2363V38.5598C152.789 37.5673 151.979 36.762 150.98 36.762C149.982 36.762 149.171 37.5673 149.171 38.5598V39.2363C149.171 40.2288 149.982 41.0341 150.98 41.0341ZM139.023 9.57742C140.021 9.57742 140.831 8.77216 140.831 7.77963V7.10311C140.831 6.11058 140.021 5.30531 139.023 5.30531C138.024 5.30531 137.214 6.11058 137.214 7.10311V7.77963C137.214 8.77216 138.024 9.57742 139.023 9.57742ZM55.8226 128.784C54.824 128.784 54.0138 129.59 54.0138 130.582V131.259C54.0138 132.251 54.824 133.056 55.8226 133.056C56.8213 133.056 57.6315 132.251 57.6315 131.259V130.582C57.6315 129.59 56.8213 128.784 55.8226 128.784ZM78.0019 145.477C77.0033 145.477 76.1931 146.282 76.1931 147.275V147.951C76.1931 148.944 77.0033 149.749 78.0019 149.749C79.0005 149.749 79.8108 148.944 79.8108 147.951V147.275C79.8108 146.282 79.0005 145.477 78.0019 145.477ZM149.266 128.445C148.267 128.445 147.457 129.25 147.457 130.243V130.921C147.457 131.914 148.267 132.719 149.266 132.719C150.264 132.719 151.074 131.914 151.074 130.921V130.243C151.074 129.25 150.264 128.445 149.266 128.445ZM31.4059 136.795C30.4073 136.795 29.5971 137.6 29.5971 138.593V139.269C29.5971 140.262 30.4073 141.067 31.4059 141.067C32.4045 141.067 33.2147 140.262 33.2147 139.269V138.593C33.2147 137.6 32.4045 136.795 31.4059 136.795ZM6.34145 119.943V119.266C6.34145 118.274 5.53124 117.468 4.53263 117.468C3.53401 117.468 2.7238 118.274 2.7238 119.266V119.943C2.7238 120.935 3.53401 121.741 4.53263 121.741C5.53124 121.741 6.34145 120.935 6.34145 119.943Z" fill="#4F4B32"/>
</svg>
