<svg id="SvgjsSvg1011" width="288" height="288" xmlns="http://www.w3.org/2000/svg" version="1.1" xmlns:xlink="http://www.w3.org/1999/xlink" xmlns:svgjs="http://svgjs.com/svgjs"><circle id="SvgjsCircle1017" r="144" cx="144" cy="144" transform="matrix(0.68,0,0,0.68,46.08,46.08)" fill="#373737"></circle><defs id="SvgjsDefs1012"></defs><g id="SvgjsG1013" transform="matrix(0.61,0,0,0.61,56.16,57.915000000000006)"><svg xmlns="http://www.w3.org/2000/svg" width="288" height="288" viewBox="0 0 32 32"><path fill-rule="evenodd" d="M 16.677734 3 C 13.71959 3 10.985037 3.9624507 8.7597656 5.578125 C 8.0562026 4.627464 6.942384 4 5.6777344 4 C 3.5519726 4 1.8222656 5.7481871 1.8222656 7.8847656 C 1.8222656 8.5015297 2.0701869 9.1289625 2.4023438 9.7773438 C 2.7345006 10.425816 3.1631971 11.0856 3.5917969 11.683594 C 3.7110999 11.850061 3.8029944 11.952262 3.9199219 12.107422 C 3.4453419 13.486376 3.1777344 14.96171 3.1777344 16.5 C 3.1777344 23.949733 9.2277003 30 16.677734 30 C 24.127767 30 30.177734 23.949733 30.177734 16.5 C 30.177734 9.0501755 24.127767 3 16.677734 3 z M 16.177734 4.0214844 L 16.177734 9 L 11.837891 9 C 12.755738 7.0559483 14.012541 5.3697657 15.515625 4.0566406 C 15.734298 4.036485 15.95589 4.0302503 16.177734 4.0214844 z M 17.177734 4.0253906 C 17.404926 4.0343747 17.633525 4.0376694 17.857422 4.0585938 C 19.111468 5.1551593 20.194815 6.5097924 21.052734 8.0585938 C 20.763651 8.3314792 20.523356 8.6498215 20.328125 9 L 17.177734 9 L 17.177734 4.0253906 z M 13.761719 4.3496094 C 12.524436 5.6728921 11.494467 7.2464771 10.724609 9 L 9.2890625 9 C 9.4295634 8.6232316 9.5332031 8.251566 9.5332031 7.8847656 C 9.5332031 7.3791722 9.4280184 6.897059 9.2519531 6.453125 C 10.579306 5.4702071 12.104998 4.7455123 13.761719 4.3496094 z M 19.595703 4.3554688 C 21.688102 4.8555855 23.570461 5.8792297 25.105469 7.2832031 C 24.663123 7.1041939 24.182606 7 23.677734 7 C 23.020896 7 22.411041 7.1828527 21.869141 7.4765625 C 21.223887 6.329711 20.461416 5.2814187 19.595703 4.3554688 z M 5.6777344 5 C 7.2582525 5 8.5332031 6.2838579 8.5332031 7.8847656 C 8.5332031 8.2023959 8.3614356 8.7424947 8.0644531 9.3222656 C 7.7674706 9.9021277 7.3575184 10.529081 6.9472656 11.101562 C 6.3126966 11.986936 5.9335064 12.402414 5.6777344 12.697266 C 5.4217504 12.402141 5.0405524 11.986572 4.40625 11.101562 C 3.9959972 10.529081 3.5879981 9.9021277 3.2910156 9.3222656 C 2.9940331 8.7424947 2.8222656 8.2023959 2.8222656 7.8847656 C 2.8222656 6.2838579 4.0972163 5 5.6777344 5 z M 5.6777344 5.8808594 C 4.7874051 5.8808594 4.0586025 6.6170627 4.0585938 7.5078125 C 4.0586025 8.3985623 4.7874051 9.1347656 5.6777344 9.1347656 C 6.5680637 9.1347656 7.2968663 8.3985623 7.296875 7.5078125 C 7.2968663 6.6170627 6.5680637 5.8808594 5.6777344 5.8808594 z M 5.6777344 6.8808594 C 6.0228258 6.8808594 6.2968715 7.1527335 6.296875 7.5078125 C 6.2968715 7.8628915 6.0228258 8.1367188 5.6777344 8.1367188 C 5.332643 8.1367188 5.0585972 7.8628915 5.0585938 7.5078125 C 5.0585972 7.1527335 5.332643 6.8808594 5.6777344 6.8808594 z M 23.677734 8 C 25.258252 8 26.533203 9.2838579 26.533203 10.884766 C 26.533203 11.202396 26.359482 11.742495 26.0625 12.322266 C 25.765518 12.902037 25.359472 13.529172 24.949219 14.101562 C 24.31465 14.987028 23.933506 15.402323 23.677734 15.697266 C 23.421962 15.402323 23.040818 14.987028 22.40625 14.101562 C 21.995997 13.529172 21.589951 12.902037 21.292969 12.322266 C 20.995986 11.742495 20.822266 11.202396 20.822266 10.884766 C 20.822266 9.2838579 22.097217 8 23.677734 8 z M 23.677734 8.8808594 C 22.787405 8.8808594 22.058602 9.6170627 22.058594 10.507812 C 22.058602 11.398653 22.787405 12.134766 23.677734 12.134766 C 24.568064 12.134766 25.294913 11.398653 25.294922 10.507812 C 25.294913 9.6170627 24.568064 8.8808594 23.677734 8.8808594 z M 23.677734 9.8808594 C 24.022826 9.8808594 24.294919 10.152734 24.294922 10.507812 C 24.294919 10.862983 24.022826 11.134766 23.677734 11.134766 C 23.332643 11.134766 23.060551 10.862983 23.060547 10.507812 C 23.060551 10.152734 23.332643 9.8808594 23.677734 9.8808594 z M 8.8261719 10 L 10.324219 10 C 9.6417037 11.851975 9.24394 13.875937 9.1894531 16 L 4.2011719 16 C 4.2412422 14.986341 4.3929802 14.003221 4.6601562 13.066406 C 5.03148 13.519628 5.3046875 13.833984 5.3046875 13.833984 A 0.50011976 0.49998025 0 0 0 6.0507812 13.833984 C 6.0507812 13.833984 6.9045193 12.879673 7.7617188 11.683594 C 8.1412058 11.154123 8.5130324 10.575559 8.8261719 10 z M 11.416016 10 L 16.177734 10 L 16.177734 16 L 10.191406 16 C 10.2496 13.856223 10.691395 11.835788 11.416016 10 z M 17.177734 10 L 19.931641 10 C 19.865036 10.285186 19.822266 10.5798 19.822266 10.884766 C 19.822266 11.50153 20.070187 12.128871 20.402344 12.777344 C 20.7345 13.425816 21.16515 14.0856 21.59375 14.683594 C 21.96409 15.200341 22.310525 15.631094 22.611328 16 L 17.177734 16 L 17.177734 10 z M 27.464844 10.201172 C 28.467547 11.915877 29.06873 13.888753 29.152344 16 L 24.744141 16 C 25.044944 15.631094 25.391379 15.200341 25.761719 14.683594 C 26.190318 14.0856 26.622921 13.425816 26.955078 12.777344 C 27.287235 12.128871 27.533203 11.50153 27.533203 10.884766 C 27.533203 10.651067 27.504488 10.423797 27.464844 10.201172 z M 4.203125 17 L 9.1894531 17 C 9.2439092 19.124063 9.6416736 21.14831 10.324219 23 L 6.0136719 23 C 4.9389814 21.239087 4.289915 19.194758 4.203125 17 z M 10.191406 17 L 16.177734 17 L 16.177734 23 L 11.416016 23 C 10.691744 21.164452 10.249407 19.143754 10.191406 17 z M 17.177734 17 L 23.146484 17 C 23.040802 18.882903 22.524697 20.953465 21.626953 23 L 17.177734 23 L 17.177734 17 z M 24.150391 17 L 29.152344 17 C 29.065561 19.194587 28.41829 21.23918 27.34375 23 L 22.714844 23 C 23.557991 20.970181 24.052505 18.916149 24.150391 17 z M 6.6914062 24 L 10.724609 24 C 11.492998 25.74975 12.521798 27.32106 13.755859 28.642578 C 10.886181 27.955134 8.4089658 26.284918 6.6914062 24 z M 11.837891 24 L 16.177734 24 L 16.177734 28.974609 C 15.957055 28.965883 15.735153 28.961403 15.517578 28.941406 C 14.013932 27.62793 12.755708 25.944463 11.837891 24 z M 17.177734 24 L 21.140625 24 C 20.264192 25.752804 19.135423 27.448938 17.779297 28.945312 C 17.580787 28.962631 17.37881 28.966658 17.177734 28.974609 L 17.177734 24 z M 22.263672 24 L 26.666016 24 C 24.884171 26.370438 22.287798 28.088735 19.28125 28.724609 C 20.479543 27.255718 21.480734 25.651309 22.263672 24 z " color="#000" enable-background="accumulate" font-family="sans-serif" font-weight="400" overflow="visible" style="line-height:normal;text-indent:0;text-align:start;text-decoration-line:none;text-decoration-style:solid;text-decoration-color:#000;text-transform:none;block-progression:tb;white-space:normal;isolation:auto;mix-blend-mode:normal;solid-color:#000;solid-opacity:1" fill="#ffda1c" class="color000 svgShape"></path></svg></g></svg>