<svg width="130" height="129" viewBox="0 0 130 129" fill="none" xmlns="http://www.w3.org/2000/svg">
<mask id="path-1-inside-1_343_40" fill="white">
<path d="M116.56 103.759C125.274 92.5611 130 78.8159 130 64.672C130 50.5281 125.274 36.7829 116.56 25.5849L116.257 25.2409C114.912 23.5209 113.481 21.8869 111.92 20.3389L111.4 19.7799C109.784 17.9607 108.061 16.2377 106.24 14.6199L105.069 13.7599C103.681 12.6849 102.293 11.6529 100.732 10.7069C99.1712 9.7609 98.9544 9.5889 98.0437 9.0729C97.1331 8.5569 96.0056 7.8689 94.9215 7.3099L91.7992 5.80489C90.8018 5.37489 89.7611 4.90189 88.677 4.51489C87.5929 4.12789 86.5521 3.69789 85.468 3.35389C84.3839 3.00989 83.1263 2.62289 81.9555 2.32189C80.7847 2.02089 79.9174 1.76289 78.8766 1.54789C77.8359 1.33289 76.0146 0.988885 74.5402 0.773884C73.0658 0.558884 72.849 0.472884 71.9817 0.386884C67.2838 -0.128961 62.5428 -0.128961 57.8449 0.386884C56.9776 0.386884 56.1537 0.644884 55.2864 0.773884C54.4191 0.902884 52.3809 1.20389 50.9499 1.54789C49.5189 1.89189 48.8684 2.02089 47.871 2.32189C46.8737 2.62289 45.5294 2.96689 44.3585 3.35389C43.1877 3.74089 42.1903 4.08489 41.1496 4.51489C40.1088 4.94489 39.0247 5.37489 38.0273 5.80489L34.9051 7.3099C33.821 7.8689 32.8236 8.4709 31.7828 9.0729C30.7421 9.6749 29.9615 10.1049 29.0942 10.7069C28.227 11.3089 26.2322 12.6849 24.7578 13.7599L23.587 14.6199C21.8352 16.1315 20.1702 17.7394 18.6 19.4359L18.0797 19.9949C16.6053 21.5429 15.1743 23.1769 13.7432 24.8969L13.4397 25.2409C4.72616 36.4389 0 50.1841 0 64.328C0 78.4719 4.72616 92.2171 13.4397 103.415L13.6999 103.759C15.0875 105.479 16.5186 107.113 18.0363 108.704L18.47 109.22C20.1686 111.034 21.9635 112.756 23.8471 114.38L24.9313 115.154C26.3222 116.273 27.7696 117.32 29.2677 118.293C30.135 118.895 31.0456 119.411 31.9563 119.927C32.867 120.443 33.9944 121.131 35.0785 121.69L38.2008 123.195C39.1982 123.625 40.2389 124.098 41.323 124.485C42.4071 124.872 43.4479 125.302 44.532 125.646C45.6161 125.99 46.8737 126.377 48.0445 126.678C49.2153 126.979 50.0826 127.237 51.1234 127.452C52.1641 127.667 53.9854 128.011 55.4598 128.226C56.9342 128.441 57.151 128.527 58.0183 128.613C62.7162 129.129 67.4572 129.129 72.1551 128.613C73.0224 128.613 73.8897 128.355 74.7136 128.226C75.5376 128.097 77.619 127.796 79.0501 127.452C80.4811 127.108 81.1316 126.979 82.129 126.678C83.1263 126.377 84.4706 126.033 85.6415 125.646C86.8123 125.259 87.8097 124.915 88.8504 124.485C89.8912 124.055 90.9753 123.625 91.9727 123.195L95.0949 121.69C96.179 121.131 97.1764 120.529 98.2172 119.927C99.2579 119.325 100.038 118.895 100.906 118.293C102.404 117.32 103.851 116.273 105.242 115.154L106.326 114.38C108.172 112.865 109.937 111.258 111.617 109.564L112.05 109.048C113.568 107.457 114.999 105.823 116.387 104.103L116.56 103.759ZM112.224 95.1591C109.824 93.4946 107.318 91.9865 104.722 90.6441C109.695 73.6219 109.695 55.5501 104.722 38.528C107.313 37.2551 109.818 35.8188 112.224 34.2279C118.25 43.3047 121.462 53.9337 121.462 64.801C121.462 75.6683 118.25 86.2973 112.224 95.3741V95.1591ZM106.5 102.383C105.502 103.458 104.462 104.49 103.421 105.479L102.077 106.683L99.3013 108.919L97.3932 110.338L94.9215 111.929L94.0542 112.445C97.1577 108.256 99.7352 103.707 101.73 98.9001C103.506 99.8365 105.229 100.87 106.89 101.996L106.5 102.383ZM32.7802 110.338L30.8722 108.919L28.0969 106.683L26.7526 105.479C25.7118 104.49 24.6711 103.458 23.6737 102.383L23.24 101.91C24.8889 100.815 26.5972 99.8099 28.357 98.9001C30.3589 103.739 32.9511 108.317 36.0759 112.531L35.2086 111.8L32.7802 110.338ZM30.3518 64.5C30.3281 56.848 31.3343 49.227 33.344 41.839C42.1264 45.0474 51.3565 46.8895 60.7069 47.3V81.7C51.3657 82.0552 42.1358 83.8393 33.344 86.989C31.3496 79.6566 30.3434 72.0945 30.3518 64.5ZM23.6303 26.7029C24.6277 25.6279 25.6685 24.5959 26.7092 23.6069L28.0535 22.4029L30.8288 20.1669L32.7369 18.7479L35.2086 17.1999L36.0759 16.6839C32.9973 20.8506 30.4077 25.3517 28.357 30.0999C26.5804 29.1635 24.8576 28.13 23.1967 27.0039L23.6303 26.7029ZM97.3499 18.7479L99.2579 20.1669L102.033 22.4029L103.378 23.6069C104.418 24.5959 105.459 25.6279 106.456 26.7029L106.89 27.1759C105.225 28.2433 103.502 29.2194 101.73 30.0999C99.6939 25.2771 97.1038 20.7032 94.0108 16.4689L94.8781 16.9849L97.3499 18.7479ZM99.7349 64.5C99.7587 72.152 98.7524 79.773 96.7428 87.161C87.9603 83.9526 78.7302 82.1105 69.3798 81.7V47.3C78.721 46.9448 87.9509 45.1607 96.7428 42.011C98.7372 49.3434 99.7433 56.9055 99.7349 64.5ZM69.3798 90.3C77.7761 90.6466 86.0688 92.2709 93.9674 95.1161C88.5035 108.403 79.6572 117.691 69.3798 119.798V90.3ZM69.3798 38.7V9.0729C79.6572 11.1799 88.5035 20.4679 93.9674 33.7549C86.0759 36.6441 77.783 38.3119 69.3798 38.7ZM60.7069 9.0729V38.7C52.3038 38.3119 44.0108 36.6441 36.1193 33.7549C41.5832 20.4679 50.4295 11.1799 60.7069 9.0729ZM60.7069 90.3V119.798C50.4295 117.691 41.5832 108.403 36.1193 95.1161C44.0179 92.2709 52.3106 90.6466 60.7069 90.3ZM17.9062 33.9269C20.3117 35.5178 22.8175 36.9541 25.4083 38.227C20.4356 55.2491 20.4356 73.3209 25.4083 90.343C22.8117 91.6855 20.3057 93.1936 17.9062 94.8581C11.8799 85.7813 8.66815 75.1523 8.66815 64.285C8.66815 53.4177 11.8799 42.7887 17.9062 33.7119V33.9269Z"/>
</mask>
<path d="M116.56 103.759C125.274 92.5611 130 78.8159 130 64.672C130 50.5281 125.274 36.7829 116.56 25.5849L116.257 25.2409C114.912 23.5209 113.481 21.8869 111.92 20.3389L111.4 19.7799C109.784 17.9607 108.061 16.2377 106.24 14.6199L105.069 13.7599C103.681 12.6849 102.293 11.6529 100.732 10.7069C99.1712 9.7609 98.9544 9.5889 98.0437 9.0729C97.1331 8.5569 96.0056 7.8689 94.9215 7.3099L91.7992 5.80489C90.8018 5.37489 89.7611 4.90189 88.677 4.51489C87.5929 4.12789 86.5521 3.69789 85.468 3.35389C84.3839 3.00989 83.1263 2.62289 81.9555 2.32189C80.7847 2.02089 79.9174 1.76289 78.8766 1.54789C77.8359 1.33289 76.0146 0.988885 74.5402 0.773884C73.0658 0.558884 72.849 0.472884 71.9817 0.386884C67.2838 -0.128961 62.5428 -0.128961 57.8449 0.386884C56.9776 0.386884 56.1537 0.644884 55.2864 0.773884C54.4191 0.902884 52.3809 1.20389 50.9499 1.54789C49.5189 1.89189 48.8684 2.02089 47.871 2.32189C46.8737 2.62289 45.5294 2.96689 44.3585 3.35389C43.1877 3.74089 42.1903 4.08489 41.1496 4.51489C40.1088 4.94489 39.0247 5.37489 38.0273 5.80489L34.9051 7.3099C33.821 7.8689 32.8236 8.4709 31.7828 9.0729C30.7421 9.6749 29.9615 10.1049 29.0942 10.7069C28.227 11.3089 26.2322 12.6849 24.7578 13.7599L23.587 14.6199C21.8352 16.1315 20.1702 17.7394 18.6 19.4359L18.0797 19.9949C16.6053 21.5429 15.1743 23.1769 13.7432 24.8969L13.4397 25.2409C4.72616 36.4389 0 50.1841 0 64.328C0 78.4719 4.72616 92.2171 13.4397 103.415L13.6999 103.759C15.0875 105.479 16.5186 107.113 18.0363 108.704L18.47 109.22C20.1686 111.034 21.9635 112.756 23.8471 114.38L24.9313 115.154C26.3222 116.273 27.7696 117.32 29.2677 118.293C30.135 118.895 31.0456 119.411 31.9563 119.927C32.867 120.443 33.9944 121.131 35.0785 121.69L38.2008 123.195C39.1982 123.625 40.2389 124.098 41.323 124.485C42.4071 124.872 43.4479 125.302 44.532 125.646C45.6161 125.99 46.8737 126.377 48.0445 126.678C49.2153 126.979 50.0826 127.237 51.1234 127.452C52.1641 127.667 53.9854 128.011 55.4598 128.226C56.9342 128.441 57.151 128.527 58.0183 128.613C62.7162 129.129 67.4572 129.129 72.1551 128.613C73.0224 128.613 73.8897 128.355 74.7136 128.226C75.5376 128.097 77.619 127.796 79.0501 127.452C80.4811 127.108 81.1316 126.979 82.129 126.678C83.1263 126.377 84.4706 126.033 85.6415 125.646C86.8123 125.259 87.8097 124.915 88.8504 124.485C89.8912 124.055 90.9753 123.625 91.9727 123.195L95.0949 121.69C96.179 121.131 97.1764 120.529 98.2172 119.927C99.2579 119.325 100.038 118.895 100.906 118.293C102.404 117.32 103.851 116.273 105.242 115.154L106.326 114.38C108.172 112.865 109.937 111.258 111.617 109.564L112.05 109.048C113.568 107.457 114.999 105.823 116.387 104.103L116.56 103.759ZM112.224 95.1591C109.824 93.4946 107.318 91.9865 104.722 90.6441C109.695 73.6219 109.695 55.5501 104.722 38.528C107.313 37.2551 109.818 35.8188 112.224 34.2279C118.25 43.3047 121.462 53.9337 121.462 64.801C121.462 75.6683 118.25 86.2973 112.224 95.3741V95.1591ZM106.5 102.383C105.502 103.458 104.462 104.49 103.421 105.479L102.077 106.683L99.3013 108.919L97.3932 110.338L94.9215 111.929L94.0542 112.445C97.1577 108.256 99.7352 103.707 101.73 98.9001C103.506 99.8365 105.229 100.87 106.89 101.996L106.5 102.383ZM32.7802 110.338L30.8722 108.919L28.0969 106.683L26.7526 105.479C25.7118 104.49 24.6711 103.458 23.6737 102.383L23.24 101.91C24.8889 100.815 26.5972 99.8099 28.357 98.9001C30.3589 103.739 32.9511 108.317 36.0759 112.531L35.2086 111.8L32.7802 110.338ZM30.3518 64.5C30.3281 56.848 31.3343 49.227 33.344 41.839C42.1264 45.0474 51.3565 46.8895 60.7069 47.3V81.7C51.3657 82.0552 42.1358 83.8393 33.344 86.989C31.3496 79.6566 30.3434 72.0945 30.3518 64.5ZM23.6303 26.7029C24.6277 25.6279 25.6685 24.5959 26.7092 23.6069L28.0535 22.4029L30.8288 20.1669L32.7369 18.7479L35.2086 17.1999L36.0759 16.6839C32.9973 20.8506 30.4077 25.3517 28.357 30.0999C26.5804 29.1635 24.8576 28.13 23.1967 27.0039L23.6303 26.7029ZM97.3499 18.7479L99.2579 20.1669L102.033 22.4029L103.378 23.6069C104.418 24.5959 105.459 25.6279 106.456 26.7029L106.89 27.1759C105.225 28.2433 103.502 29.2194 101.73 30.0999C99.6939 25.2771 97.1038 20.7032 94.0108 16.4689L94.8781 16.9849L97.3499 18.7479ZM99.7349 64.5C99.7587 72.152 98.7524 79.773 96.7428 87.161C87.9603 83.9526 78.7302 82.1105 69.3798 81.7V47.3C78.721 46.9448 87.9509 45.1607 96.7428 42.011C98.7372 49.3434 99.7433 56.9055 99.7349 64.5ZM69.3798 90.3C77.7761 90.6466 86.0688 92.2709 93.9674 95.1161C88.5035 108.403 79.6572 117.691 69.3798 119.798V90.3ZM69.3798 38.7V9.0729C79.6572 11.1799 88.5035 20.4679 93.9674 33.7549C86.0759 36.6441 77.783 38.3119 69.3798 38.7ZM60.7069 9.0729V38.7C52.3038 38.3119 44.0108 36.6441 36.1193 33.7549C41.5832 20.4679 50.4295 11.1799 60.7069 9.0729ZM60.7069 90.3V119.798C50.4295 117.691 41.5832 108.403 36.1193 95.1161C44.0179 92.2709 52.3106 90.6466 60.7069 90.3ZM17.9062 33.9269C20.3117 35.5178 22.8175 36.9541 25.4083 38.227C20.4356 55.2491 20.4356 73.3209 25.4083 90.343C22.8117 91.6855 20.3057 93.1936 17.9062 94.8581C11.8799 85.7813 8.66815 75.1523 8.66815 64.285C8.66815 53.4177 11.8799 42.7887 17.9062 33.7119V33.9269Z" fill="#FFDA1C" stroke="black" stroke-width="2" mask="url(#path-1-inside-1_343_40)"/>
</svg>
