<svg width="175" height="170" viewBox="0 0 175 170" fill="none" xmlns="http://www.w3.org/2000/svg">
<path d="M166.605 155.5H8.39453C4.02375 155.5 0.5 152.039 0.5 147.794V19.2056C0.5 14.9606 4.02375 11.5 8.39453 11.5H166.605C170.976 11.5 174.5 14.9606 174.5 19.2056V147.794C174.5 152.039 170.976 155.5 166.605 155.5Z" fill="#FFDA1C" stroke="black"/>
<path d="M8.39453 11.5H166.605C170.956 11.5 174.5 15.1005 174.5 19.5629V65.5H0.5V19.5629C0.5 15.1005 4.04386 11.5 8.39453 11.5Z" fill="#FCE469" stroke="black"/>
<path d="M8.39453 15.2199C4.96509 15.2199 1.98379 17.1378 0.5 19.9509V19.2801C0.5 14.9897 4.02805 11.5 8.39453 11.5H166.605C170.972 11.5 174.5 14.9897 174.5 19.2801V19.9509C173.016 17.1378 170.035 15.2199 166.605 15.2199H8.39453Z" fill="#FFDA1C" stroke="black"/>
<path d="M0.5 150.268V149.885C0.942288 150.48 1.51341 151.013 2.17675 151.466C3.78923 152.567 5.98907 153.232 8.39453 153.232H166.605C169.011 153.232 171.211 152.567 172.823 151.466C173.487 151.013 174.058 150.48 174.5 149.885V150.268C174.5 151.637 173.688 152.933 172.259 153.908C170.834 154.882 168.836 155.5 166.605 155.5H8.39453C6.16386 155.5 4.16643 154.882 2.74068 153.908C1.31245 152.933 0.5 151.637 0.5 150.268Z" fill="#4F4B32" stroke="black"/>
<path d="M143.4 77.5H160.6C161.159 77.5 161.671 77.6448 162.026 77.8743C162.382 78.1044 162.5 78.3602 162.5 78.5514V83.5H141.5V78.5514C141.5 78.3602 141.618 78.1044 141.974 77.8743C142.329 77.6448 142.841 77.5 143.4 77.5Z" fill="white" stroke="black"/>
<path d="M141.5 84.5H162.5V94.5H141.5V84.5Z" fill="#EDE6C2" stroke="black"/>
<path d="M141.5 95.5H162.5V105.5H141.5V95.5Z" fill="white" stroke="black"/>
<path d="M141.5 106.5H162.5V114.5H141.5V106.5Z" fill="#EDE6C2" stroke="black"/>
<path d="M141.5 115.5H162.5V127.5H141.5V115.5Z" fill="white" stroke="black"/>
<path d="M141.5 128.5H162.5V138.5H141.5V128.5Z" fill="#EDE6C2" stroke="black"/>
<path d="M141.5 139.5H162.5V145.227C162.5 145.507 162.35 145.82 162 146.079C161.648 146.339 161.145 146.5 160.6 146.5H143.4C142.855 146.5 142.352 146.339 142 146.079C141.65 145.82 141.5 145.507 141.5 145.227V139.5Z" fill="white" stroke="black"/>
<path d="M53.9683 169.5H22.0317C16.2053 169.5 11.5 164.876 11.5 159.194V10.8056C11.5 5.12355 16.2053 0.5 22.0317 0.5H53.9683C59.7947 0.5 64.5 5.12355 64.5 10.8056V159.194C64.5006 164.876 59.7948 169.5 53.9683 169.5Z" fill="white" stroke="black"/>
<path d="M53.9683 0H22.0317C15.9389 0 11 4.06948 11 9.08972V13C11 7.97976 15.9389 3.91028 22.0317 3.91028H53.9683C60.0611 3.91028 65 7.97976 65 13V9.08972C65.0007 4.06948 60.0611 0 53.9683 0Z" fill="#FFEF9E"/>
<path d="M11.5 160.211V160.203C13.3092 163.809 17.3734 166.289 22.0317 166.289H53.9683C58.6266 166.289 62.6908 163.809 64.5 160.203V160.211C64.5 165.287 59.8428 169.5 53.9683 169.5H22.0317C16.1572 169.5 11.5 165.287 11.5 160.211Z" fill="#FFDA1C" stroke="black"/>
<mask id="path-15-inside-1_343_43" fill="white">
<path d="M79 103.09V94.3306C79 93.7125 79.2327 93.1197 79.647 92.6826C80.0612 92.2455 80.623 92 81.2088 92H90.4685C91.0543 92 91.6161 92.2455 92.0303 92.6826C92.4446 93.1197 92.6773 93.7125 92.6773 94.3306V103.09C92.6773 103.708 92.4446 104.301 92.0303 104.738C91.6161 105.175 91.0543 105.421 90.4685 105.421H81.2088C80.6231 105.421 80.0613 105.175 79.6471 104.738C79.2329 104.301 79.0002 103.708 79 103.09ZM99.661 103.09V94.3306C99.661 93.7125 99.8937 93.1197 100.308 92.6826C100.722 92.2455 101.284 92 101.87 92H111.13C111.716 92 112.278 92.2455 112.692 92.6826C113.106 93.1197 113.339 93.7125 113.339 94.3306V103.09C113.339 103.708 113.106 104.301 112.692 104.738C112.278 105.175 111.716 105.421 111.13 105.421H101.87C101.284 105.421 100.722 105.175 100.308 104.738C99.894 104.301 99.6612 103.708 99.661 103.09ZM120.323 103.09V94.3306C120.323 93.7125 120.555 93.1197 120.97 92.6826C121.384 92.2455 121.946 92 122.532 92H131.791C132.377 92 132.939 92.2455 133.353 92.6826C133.767 93.1197 134 93.7125 134 94.3306V103.09C134 103.708 133.767 104.301 133.353 104.738C132.939 105.175 132.377 105.421 131.791 105.421H122.532C121.946 105.421 121.384 105.175 120.97 104.738C120.556 104.301 120.323 103.708 120.323 103.09ZM79 123.88V115.12C79 114.502 79.2327 113.909 79.647 113.472C80.0612 113.035 80.623 112.79 81.2088 112.79H90.4685C91.0543 112.79 91.6161 113.035 92.0303 113.472C92.4446 113.909 92.6773 114.502 92.6773 115.12V123.88C92.6773 124.498 92.4446 125.091 92.0303 125.528C91.6161 125.965 91.0543 126.21 90.4685 126.21H81.2088C80.6231 126.21 80.0613 125.965 79.6471 125.528C79.2329 125.091 79.0002 124.498 79 123.88ZM99.661 123.88V115.12C99.661 114.502 99.8937 113.909 100.308 113.472C100.722 113.035 101.284 112.79 101.87 112.79H111.13C111.716 112.79 112.278 113.035 112.692 113.472C113.106 113.909 113.339 114.502 113.339 115.12V123.88C113.339 124.498 113.106 125.091 112.692 125.528C112.278 125.965 111.716 126.21 111.13 126.21H101.87C101.284 126.21 100.722 125.965 100.308 125.528C99.894 125.091 99.6612 124.498 99.661 123.88ZM120.323 123.88V115.12C120.323 114.502 120.555 113.909 120.97 113.472C121.384 113.035 121.946 112.79 122.532 112.79H131.791C132.377 112.79 132.939 113.035 133.353 113.472C133.767 113.909 134 114.502 134 115.12V123.88C134 124.498 133.767 125.091 133.353 125.528C132.939 125.965 132.377 126.21 131.791 126.21H122.532C121.946 126.21 121.384 125.965 120.97 125.528C120.556 125.091 120.323 124.498 120.323 123.88ZM79 144.669V135.91C79 135.292 79.2327 134.699 79.647 134.262C80.0612 133.825 80.623 133.579 81.2088 133.579H90.4685C91.0543 133.579 91.6161 133.825 92.0303 134.262C92.4446 134.699 92.6773 135.292 92.6773 135.91V144.669C92.6773 145.288 92.4446 145.88 92.0303 146.317C91.6161 146.754 91.0543 147 90.4685 147H81.2088C80.623 147 80.0612 146.754 79.647 146.317C79.2327 145.88 79 145.288 79 144.669ZM99.661 144.669V135.91C99.661 135.292 99.8937 134.699 100.308 134.262C100.722 133.825 101.284 133.579 101.87 133.579H111.13C111.716 133.579 112.278 133.825 112.692 134.262C113.106 134.699 113.339 135.292 113.339 135.91V144.669C113.339 145.288 113.106 145.88 112.692 146.317C112.278 146.754 111.716 147 111.13 147H101.87C101.284 147 100.722 146.754 100.308 146.317C99.8937 145.88 99.661 145.288 99.661 144.669ZM120.323 144.669V135.91C120.323 135.292 120.555 134.699 120.97 134.262C121.384 133.825 121.946 133.579 122.532 133.579H131.791C132.377 133.579 132.939 133.825 133.353 134.262C133.767 134.699 134 135.292 134 135.91V144.669C134 145.288 133.767 145.88 133.353 146.317C132.939 146.754 132.377 147 131.791 147H122.532C121.946 147 121.384 146.754 120.97 146.317C120.555 145.88 120.323 145.288 120.323 144.669Z"/>
</mask>
<path d="M79 103.09V94.3306C79 93.7125 79.2327 93.1197 79.647 92.6826C80.0612 92.2455 80.623 92 81.2088 92H90.4685C91.0543 92 91.6161 92.2455 92.0303 92.6826C92.4446 93.1197 92.6773 93.7125 92.6773 94.3306V103.09C92.6773 103.708 92.4446 104.301 92.0303 104.738C91.6161 105.175 91.0543 105.421 90.4685 105.421H81.2088C80.6231 105.421 80.0613 105.175 79.6471 104.738C79.2329 104.301 79.0002 103.708 79 103.09ZM99.661 103.09V94.3306C99.661 93.7125 99.8937 93.1197 100.308 92.6826C100.722 92.2455 101.284 92 101.87 92H111.13C111.716 92 112.278 92.2455 112.692 92.6826C113.106 93.1197 113.339 93.7125 113.339 94.3306V103.09C113.339 103.708 113.106 104.301 112.692 104.738C112.278 105.175 111.716 105.421 111.13 105.421H101.87C101.284 105.421 100.722 105.175 100.308 104.738C99.894 104.301 99.6612 103.708 99.661 103.09ZM120.323 103.09V94.3306C120.323 93.7125 120.555 93.1197 120.97 92.6826C121.384 92.2455 121.946 92 122.532 92H131.791C132.377 92 132.939 92.2455 133.353 92.6826C133.767 93.1197 134 93.7125 134 94.3306V103.09C134 103.708 133.767 104.301 133.353 104.738C132.939 105.175 132.377 105.421 131.791 105.421H122.532C121.946 105.421 121.384 105.175 120.97 104.738C120.556 104.301 120.323 103.708 120.323 103.09ZM79 123.88V115.12C79 114.502 79.2327 113.909 79.647 113.472C80.0612 113.035 80.623 112.79 81.2088 112.79H90.4685C91.0543 112.79 91.6161 113.035 92.0303 113.472C92.4446 113.909 92.6773 114.502 92.6773 115.12V123.88C92.6773 124.498 92.4446 125.091 92.0303 125.528C91.6161 125.965 91.0543 126.21 90.4685 126.21H81.2088C80.6231 126.21 80.0613 125.965 79.6471 125.528C79.2329 125.091 79.0002 124.498 79 123.88ZM99.661 123.88V115.12C99.661 114.502 99.8937 113.909 100.308 113.472C100.722 113.035 101.284 112.79 101.87 112.79H111.13C111.716 112.79 112.278 113.035 112.692 113.472C113.106 113.909 113.339 114.502 113.339 115.12V123.88C113.339 124.498 113.106 125.091 112.692 125.528C112.278 125.965 111.716 126.21 111.13 126.21H101.87C101.284 126.21 100.722 125.965 100.308 125.528C99.894 125.091 99.6612 124.498 99.661 123.88ZM120.323 123.88V115.12C120.323 114.502 120.555 113.909 120.97 113.472C121.384 113.035 121.946 112.79 122.532 112.79H131.791C132.377 112.79 132.939 113.035 133.353 113.472C133.767 113.909 134 114.502 134 115.12V123.88C134 124.498 133.767 125.091 133.353 125.528C132.939 125.965 132.377 126.21 131.791 126.21H122.532C121.946 126.21 121.384 125.965 120.97 125.528C120.556 125.091 120.323 124.498 120.323 123.88ZM79 144.669V135.91C79 135.292 79.2327 134.699 79.647 134.262C80.0612 133.825 80.623 133.579 81.2088 133.579H90.4685C91.0543 133.579 91.6161 133.825 92.0303 134.262C92.4446 134.699 92.6773 135.292 92.6773 135.91V144.669C92.6773 145.288 92.4446 145.88 92.0303 146.317C91.6161 146.754 91.0543 147 90.4685 147H81.2088C80.623 147 80.0612 146.754 79.647 146.317C79.2327 145.88 79 145.288 79 144.669ZM99.661 144.669V135.91C99.661 135.292 99.8937 134.699 100.308 134.262C100.722 133.825 101.284 133.579 101.87 133.579H111.13C111.716 133.579 112.278 133.825 112.692 134.262C113.106 134.699 113.339 135.292 113.339 135.91V144.669C113.339 145.288 113.106 145.88 112.692 146.317C112.278 146.754 111.716 147 111.13 147H101.87C101.284 147 100.722 146.754 100.308 146.317C99.8937 145.88 99.661 145.288 99.661 144.669ZM120.323 144.669V135.91C120.323 135.292 120.555 134.699 120.97 134.262C121.384 133.825 121.946 133.579 122.532 133.579H131.791C132.377 133.579 132.939 133.825 133.353 134.262C133.767 134.699 134 135.292 134 135.91V144.669C134 145.288 133.767 145.88 133.353 146.317C132.939 146.754 132.377 147 131.791 147H122.532C121.946 147 121.384 146.754 120.97 146.317C120.555 145.88 120.323 145.288 120.323 144.669Z" fill="#D4B100" stroke="black" stroke-width="2" mask="url(#path-15-inside-1_343_43)"/>
<path d="M91.5 81C91.5 81.8662 90.9277 82.7297 89.8341 83.4026C88.7487 84.0706 87.2176 84.5 85.5 84.5C83.7824 84.5 82.2513 84.0706 81.1659 83.4026C80.0723 82.7297 79.5 81.8662 79.5 81C79.5 80.1338 80.0723 79.2703 81.1659 78.5974C82.2513 77.9294 83.7824 77.5 85.5 77.5C87.2176 77.5 88.7487 77.9294 89.8341 78.5974C90.9277 79.2703 91.5 80.1338 91.5 81Z" fill="#FCE469" stroke="black"/>
<path d="M106.5 81C106.5 81.8854 105.962 82.7481 104.965 83.4124C103.972 84.0743 102.572 84.5 101 84.5C99.4281 84.5 98.0276 84.0743 97.0347 83.4124C96.0383 82.7481 95.5 81.8854 95.5 81C95.5 80.1146 96.0383 79.2519 97.0347 78.5876C98.0276 77.9257 99.4281 77.5 101 77.5C102.572 77.5 103.972 77.9257 104.965 78.5876C105.962 79.2519 106.5 80.1146 106.5 81Z" fill="#FCE469" stroke="black"/>
<path d="M121.5 81C121.5 81.9052 120.997 82.7684 120.095 83.4241C119.194 84.0793 117.925 84.5 116.5 84.5C115.075 84.5 113.806 84.0793 112.905 83.4241C112.003 82.7684 111.5 81.9052 111.5 81C111.5 80.0948 112.003 79.2316 112.905 78.5759C113.806 77.9207 115.075 77.5 116.5 77.5C117.925 77.5 119.194 77.9207 120.095 78.5759C120.997 79.2316 121.5 80.0948 121.5 81Z" fill="#FCE469" stroke="black"/>
<path d="M133.5 81C133.5 82.8793 131.766 84.5 129.5 84.5C127.234 84.5 125.5 82.8793 125.5 81C125.5 79.1207 127.234 77.5 129.5 77.5C131.766 77.5 133.5 79.1207 133.5 81Z" fill="#FCE469" stroke="black"/>
<path d="M79.5 24.8391L79.5 24.839C79.4999 24.5297 79.5589 24.2238 79.6733 23.9388C79.7877 23.6538 79.955 23.3959 80.1649 23.1794C80.3747 22.9629 80.623 22.792 80.8952 22.6757C81.1673 22.5595 81.4583 22.4999 81.7519 22.5H81.752L160.248 22.5L160.248 22.5C160.542 22.4999 160.833 22.5595 161.105 22.6757C161.377 22.792 161.625 22.9629 161.835 23.1794C162.045 23.3959 162.212 23.6538 162.327 23.9388C162.441 24.2238 162.5 24.5297 162.5 24.839V24.8391V52.1609V52.161C162.5 52.4703 162.441 52.7763 162.327 53.0612C162.212 53.3462 162.045 53.6041 161.835 53.8206C161.625 54.0372 161.377 54.208 161.105 54.3243C160.833 54.4405 160.542 54.5001 160.248 54.5H160.248H81.752C80.5233 54.5 79.5 53.4676 79.5 52.1609L79.5 24.8391Z" fill="white" stroke="black"/>
<path d="M115.02 34.7173H91.2593C90.8178 34.7173 90.377 34.5154 90.0397 34.1259C89.7004 33.7342 89.5 33.1893 89.5 32.6086C89.5 32.028 89.7004 31.4831 90.0397 31.0914C90.377 30.7019 90.8178 30.5 91.2593 30.5H115.02C115.461 30.5 115.902 30.7019 116.239 31.0914C116.579 31.4831 116.779 32.028 116.779 32.6086C116.779 33.1893 116.579 33.7342 116.239 34.1259C115.902 34.5154 115.461 34.7173 115.02 34.7173ZM127.741 45.5H91.2593C90.8178 45.5 90.377 45.2981 90.0397 44.9086C89.7004 44.5169 89.5 43.972 89.5 43.3914C89.5 42.8107 89.7004 42.2658 90.0397 41.8741C90.377 41.4846 90.8178 41.2827 91.2593 41.2827H127.741C128.182 41.2827 128.623 41.4846 128.96 41.8741C129.3 42.2658 129.5 42.8107 129.5 43.3914C129.5 43.972 129.3 44.5169 128.96 44.9086C128.623 45.2981 128.182 45.5 127.741 45.5Z" fill="#FFDA1C" stroke="black"/>
<path d="M48.5 29.5C48.5 35.643 44.1834 40.5 39 40.5C33.8166 40.5 29.5 35.643 29.5 29.5C29.5 23.357 33.8166 18.5 39 18.5C44.1834 18.5 48.5 23.357 48.5 29.5Z" fill="#FFDA1C" stroke="black"/>
</svg>
