<svg width="107" height="173" viewBox="0 0 107 173" fill="none" xmlns="http://www.w3.org/2000/svg">
<path d="M26 11.5H86C95.635 11.5 103.5 19.5635 103.5 29.5V140.5C103.5 150.437 95.635 158.5 86 158.5H26C16.365 158.5 8.5 150.437 8.5 140.5V29.5C8.5 19.5635 16.365 11.5 26 11.5Z" fill="#FFDA1C" stroke="black"/>
<path d="M27.0506 23.7878H88.7678C92.1684 23.7878 94.9395 26.5879 94.9395 30.038V130.04H20.8789V30.038C20.8789 26.5879 23.65 23.7878 27.0506 23.7878Z" fill="white"/>
<path d="M44.0819 60.8573H51.7637V80.6144C51.7637 82.2267 52.4112 83.773 53.5637 84.913C54.7162 86.0531 56.2793 86.6935 57.9092 86.6935C59.539 86.6935 61.1022 86.0531 62.2546 84.913C63.4071 83.773 64.0546 82.2267 64.0546 80.6144V60.8573H71.7364C75.8293 60.8573 77.888 55.9393 74.9935 53.076L61.1662 39.398C60.7399 38.9728 60.2324 38.6357 59.6733 38.4061C59.1142 38.1765 58.5145 38.0591 57.9092 38.0606C57.3038 38.0591 56.7041 38.1765 56.145 38.4061C55.5859 38.6357 55.0784 38.9728 54.6521 39.398L40.8248 53.076C37.9303 55.9393 39.989 60.8573 44.0819 60.8573ZM76.3455 111.01H39.4728C32.6944 111.01 27.1819 105.557 27.1819 98.8518V92.7727C27.1819 91.1604 27.8294 89.6141 28.9818 88.4741C30.1343 87.334 31.6975 86.6935 33.3273 86.6935C34.9572 86.6935 36.5203 87.334 37.6728 88.4741C38.8253 89.6141 39.4728 91.1604 39.4728 92.7727V98.8518H76.3455V92.7727C76.3455 91.1604 76.993 89.6141 78.1455 88.4741C79.298 87.334 80.8611 86.6935 82.491 86.6935C84.1208 86.6935 85.684 87.334 86.8365 88.4741C87.989 89.6141 88.6364 91.1604 88.6364 92.7727V98.8518C88.6364 105.557 83.124 111.01 76.3455 111.01Z" fill="#FFDA1C"/>
<path d="M57.1213 38.0606C56.5314 38.0591 55.9472 38.1765 55.4024 38.4061C54.8576 38.6357 54.3631 38.9728 53.9477 39.398L40.475 53.076C37.6547 55.9393 39.6606 60.8573 43.6486 60.8573H51.1334V80.6144C51.1334 82.2267 51.7643 83.773 52.8872 84.913C54.0102 86.0531 55.5332 86.6935 57.1213 86.6935V38.0606ZM33.1698 86.6935C31.5817 86.6935 30.0586 87.334 28.9357 88.4741C27.8127 89.6141 27.1819 91.1604 27.1819 92.7727V98.8518C27.1819 105.557 32.553 111.01 39.1576 111.01H57.1213V98.8518H39.1576V92.7727C39.1576 91.1604 38.5268 89.6141 37.4038 88.4741C36.2809 87.334 34.7578 86.6935 33.1698 86.6935Z" fill="#FFDA1C"/>
</svg>
