<svg id="SvgjsSvg1058" width="288" height="288" xmlns="http://www.w3.org/2000/svg" version="1.1" xmlns:xlink="http://www.w3.org/1999/xlink" xmlns:svgjs="http://svgjs.com/svgjs"><circle id="SvgjsCircle1064" r="144" cx="144" cy="144" transform="matrix(0.7916,0,0,0.7916,30.009600000000006,30.009600000000006)" fill="#373737"></circle><defs id="SvgjsDefs1059"></defs><g id="SvgjsG1060" transform="matrix(0.58,0,0,0.58,60.480000000000004,60.480000000000004)"><svg xmlns="http://www.w3.org/2000/svg" viewBox="0 0 24 24" width="288" height="288"><path d="M2,5A1,1,0,0,1,3,4H21a1,1,0,0,1,0,2H3A1,1,0,0,1,2,5Zm19,5H3a1,1,0,0,0,0,2H21a1,1,0,0,0,0-2Zm-8,6H3a1,1,0,0,0,0,2H13a1,1,0,0,0,0-2Zm8,0H20V15a1,1,0,0,0-2,0v1H17a1,1,0,0,0,0,2h1v1a1,1,0,0,0,2,0V18h1a1,1,0,0,0,0-2Z" data-name="27 Others" fill="#ffda1c" class="color000 svgShape"></path></svg></g></svg>