<svg width="150" height="151" viewBox="0 0 150 151" fill="none" xmlns="http://www.w3.org/2000/svg">
<path d="M69.0056 120.66L68.793 120.214L69.0056 120.66C70.0111 120.181 70.8435 119.986 71.5667 119.986C72.2855 119.986 72.929 120.179 73.5599 120.523C74.198 120.871 74.8211 121.373 75.4933 121.992C75.8946 122.361 76.2955 122.755 76.7223 123.175C77.0203 123.468 77.331 123.773 77.6633 124.091C79.2555 125.616 81.2028 127.292 83.96 128.583C86.719 129.875 90.2624 130.768 95.0404 130.768C102.122 130.768 106.536 132.676 109.294 134.984C112.056 137.297 113.207 140.053 113.684 141.834C113.793 142.247 113.784 142.507 113.744 142.664C113.707 142.807 113.638 142.889 113.55 142.948C113.329 143.098 112.967 143.127 112.586 143.127H107.263C106.451 143.127 105.921 142.787 105.402 142.199C105.134 141.895 104.878 141.535 104.591 141.124C104.567 141.089 104.543 141.055 104.519 141.02C104.256 140.643 103.969 140.23 103.64 139.817C102.915 138.908 101.976 137.985 100.549 137.305C99.1256 136.626 97.2517 136.205 94.678 136.243C92.2491 136.279 88.9107 135.538 85.3715 134.315C81.8428 133.097 78.1594 131.416 75.0533 129.608C71.9301 127.79 69.4518 125.879 68.2706 124.22C67.6788 123.389 67.4704 122.702 67.5618 122.164C67.6485 121.653 68.0341 121.123 69.0056 120.66Z" fill="#C7B338" stroke="black"/>
<path d="M24.1243 141.835C24.6014 140.054 25.7524 137.297 28.5149 134.984C31.2727 132.676 35.6866 130.768 42.7684 130.768C47.5465 130.768 51.0899 129.875 53.8488 128.583C56.6061 127.292 58.5533 125.616 60.1456 124.091C60.4779 123.773 60.7885 123.468 61.0866 123.175C61.5134 122.755 61.9143 122.361 62.3156 121.992C62.9877 121.373 63.6108 120.871 64.249 120.523C64.8799 120.179 65.5233 119.986 66.2422 119.986C66.9654 119.986 67.7977 120.181 68.8032 120.66C69.7748 121.123 70.1604 121.653 70.2471 122.164C70.3384 122.702 70.13 123.389 69.5383 124.22C68.357 125.879 65.8788 127.79 62.7556 129.608C59.6495 131.416 55.966 133.097 52.4373 134.315C48.8981 135.538 45.5598 136.279 43.1309 136.243C40.5572 136.205 38.6832 136.626 37.2599 137.305C35.8331 137.985 34.8937 138.908 34.1687 139.817C33.8399 140.23 33.5526 140.643 33.2897 141.02C33.2656 141.055 33.2416 141.089 33.2179 141.124C32.931 141.535 32.6753 141.895 32.4069 142.199C31.888 142.787 31.3575 143.127 30.5459 143.127H25.2233C24.8421 143.127 24.4798 143.098 24.2589 142.948C24.1713 142.889 24.1022 142.807 24.0652 142.664C24.0247 142.507 24.0162 142.247 24.1243 141.835Z" fill="#C7B338" stroke="black"/>
<path d="M71.4426 36.7604C71.7881 36.5877 72.2346 36.3679 72.7708 36.1061C74.1083 35.4531 75.9972 34.5428 78.2534 33.4617C82.7655 31.2996 88.7429 28.456 94.7078 25.6254C100.673 22.7948 106.624 19.9773 111.085 17.8675C113.315 16.8126 115.173 15.9346 116.473 15.3203L117.981 14.6076L118.378 14.4199L118.48 14.3718L118.506 14.3597L118.513 14.3566L118.514 14.3558C118.515 14.3557 118.515 14.3556 118.301 13.9035L118.515 14.3556L118.865 14.19L118.792 13.8094L118.792 13.8093L118.792 13.8092L118.792 13.809L118.792 13.807L118.79 13.7958C118.788 13.7854 118.785 13.769 118.781 13.7472C118.774 13.7034 118.763 13.6377 118.752 13.5532C118.728 13.3839 118.698 13.1402 118.677 12.8471C118.635 12.2575 118.627 11.4843 118.755 10.7212C118.884 9.95319 119.144 9.24029 119.602 8.72568C120.043 8.22913 120.707 7.87305 121.754 7.87305C123.892 7.87305 125.515 9.13689 126.333 10.7108C127.162 12.3074 127.106 14.0825 126.1 15.1386L126.462 15.4834L126.1 15.1386C125.049 16.2435 123.56 16.4546 122.25 16.3541C121.603 16.3045 121.023 16.1799 120.604 16.0671C120.395 16.0108 120.228 15.958 120.115 15.9197C120.058 15.9006 120.015 15.8852 119.987 15.8748L119.956 15.8634L119.949 15.8608L119.949 15.8606L119.949 15.8605L119.948 15.8605L119.948 15.8604L119.707 15.7654L119.49 15.9094L80.7014 41.6561L71.4426 36.7604ZM64.5875 36.0641C64.9343 36.311 65.2275 36.5207 65.4607 36.6887L56.1457 41.614L32.7599 15.989L32.528 15.7348L32.2083 15.8604L32.2082 15.8605L32.208 15.8605L32.2078 15.8606L32.2072 15.8608L32.2006 15.8634L32.1698 15.8748C32.1416 15.8852 32.0984 15.9006 32.0418 15.9197C31.9283 15.958 31.7613 16.0108 31.5526 16.0671C31.1339 16.1799 30.5541 16.3045 29.9066 16.3541C28.5964 16.4546 27.1081 16.2435 26.0563 15.1386C25.0509 14.0825 24.9943 12.3074 25.8239 10.7108C26.6418 9.13689 28.2644 7.87305 30.4026 7.87305C31.4494 7.87305 32.1133 8.22913 32.5548 8.72568C33.0124 9.24029 33.2724 9.95319 33.4016 10.7212C33.53 11.4843 33.5218 12.2575 33.4793 12.8471C33.4582 13.1402 33.4289 13.3839 33.4051 13.5532C33.3932 13.6377 33.3827 13.7034 33.3753 13.7472C33.3716 13.769 33.3687 13.7854 33.3668 13.7958L33.3648 13.807L33.3644 13.809L33.3644 13.8092L33.3644 13.8093L33.3643 13.8094L33.3032 14.1276L33.5691 14.3134L33.8554 13.9035C33.5691 14.3134 33.5692 14.3135 33.5695 14.3136L33.5706 14.3144L33.575 14.3175L33.5924 14.3296L33.6613 14.3777L33.9299 14.5654L34.9501 15.2781C35.8292 15.8924 37.0856 16.7704 38.5945 17.8253C41.6124 19.9351 45.6406 22.7526 49.6818 25.5832C53.7231 28.4139 57.7772 31.2574 60.8469 33.4196C62.3819 34.5007 63.6701 35.4111 64.5875 36.0641Z" fill="#797354" stroke="black"/>
<path d="M56.2356 41.7614C55.9691 41.5359 55.8481 41.159 56.0041 40.5966C56.1792 39.9656 56.7003 39.1708 57.6512 38.3825C59.5422 36.8148 63.03 35.364 68.2792 35.364C73.5315 35.364 77.2935 36.7378 79.585 38.4143C80.7324 39.2537 81.4992 40.1598 81.912 40.9954C82.3264 41.8342 82.3686 42.5632 82.1502 43.1028C82.1426 43.1215 82.0972 43.2 81.8978 43.3021C81.7046 43.401 81.4212 43.4936 81.0406 43.5718C80.2814 43.7279 79.2309 43.8084 77.9688 43.8256C75.451 43.8598 72.1866 43.6413 68.9413 43.3324C65.6997 43.0238 62.4923 42.6264 60.0943 42.306C58.8955 42.1458 57.8997 42.0049 57.2037 41.9041C56.8558 41.8537 56.5828 41.8134 56.397 41.7856L56.2356 41.7614ZM53.1068 132.039C46.1329 132.039 42.7488 130.225 41.0596 128.089C39.5024 126.12 39.2929 123.778 39.2066 121.941L103.66 121.773C103.696 121.967 103.737 122.229 103.772 122.543C103.852 123.262 103.894 124.244 103.751 125.302C103.466 127.41 102.455 129.783 99.5392 131.057C98.0683 131.7 95.3383 132.104 91.7682 132.328C88.2233 132.551 83.9258 132.594 79.3724 132.552C75.0597 132.511 70.5004 132.393 66.1477 132.281C61.3464 132.157 56.7966 132.039 53.1068 132.039Z" fill="#FFDF3D" stroke="black"/>
<path d="M38.8304 45.9512C39.8173 43.7911 40.9489 42.6514 42.1865 42.4584C54.483 41.2458 74.2639 40.5776 92.1858 40.5776C101.148 40.5776 109.639 40.7447 116.489 41.0937C123.364 41.444 128.524 41.9753 130.871 42.684C131.336 42.8246 131.819 43.1899 132.305 43.8325C132.79 44.4729 133.252 45.3543 133.685 46.4607C134.552 48.6732 135.276 51.7068 135.859 55.3095C137.023 62.5092 137.611 71.889 137.702 81.2985C137.792 90.7064 137.385 100.123 136.565 107.393C136.155 111.03 135.643 114.114 135.043 116.387C134.743 117.524 134.425 118.441 134.096 119.117C133.757 119.811 133.442 120.172 133.193 120.307C132.866 120.484 132.224 120.691 131.253 120.913C130.297 121.13 129.067 121.352 127.598 121.574C124.663 122.017 120.798 122.454 116.313 122.855C107.344 123.657 95.9177 124.31 84.5287 124.563C73.1372 124.816 61.7973 124.669 52.9972 123.874C48.5948 123.476 44.8472 122.917 42.0528 122.172C40.655 121.799 39.5136 121.385 38.6538 120.93C37.7857 120.471 37.2565 119.998 37.0088 119.537C37.0097 119.539 37.0092 119.538 37.0073 119.532C37.0006 119.511 36.9763 119.436 36.9413 119.27C36.9018 119.084 36.8575 118.829 36.8094 118.506C36.7132 117.86 36.605 116.968 36.4901 115.86C36.2604 113.645 36.006 110.587 35.7693 106.966C35.2959 99.7252 34.8946 90.2453 34.9045 80.7751C34.9144 71.2997 35.3362 61.8559 36.503 54.6774C37.087 51.0844 37.8529 48.0907 38.8304 45.9512Z" fill="#FFD917" stroke="black"/>
<path d="M42.854 129.724C39.6446 127.563 39.32 124.319 39.2077 121.94L103.661 121.771C103.678 121.868 103.698 121.982 103.717 122.111C103.785 122.573 103.852 123.223 103.845 123.971C103.831 125.399 103.548 127.142 102.54 128.628C97.4475 127.998 91.2652 127.647 85.2263 127.305C81.9478 127.119 78.7115 126.935 75.7148 126.71C64.7787 125.891 50.5031 127.632 42.854 129.724Z" fill="#CFB515" stroke="black"/>
<path d="M17.2267 45.9512C18.2136 43.7911 19.3452 42.6514 20.5828 42.4584C32.8793 41.2458 52.6601 40.5776 70.582 40.5776C79.5445 40.5776 88.0351 40.7447 94.8855 41.0937C101.761 41.444 106.92 41.9753 109.267 42.684C109.733 42.8246 110.215 43.1899 110.701 43.8325C111.186 44.4729 111.648 45.3543 112.082 46.4607C112.949 48.6732 113.672 51.7068 114.255 55.3095C115.419 62.5092 116.007 71.889 116.098 81.2985C116.188 90.7064 115.781 100.123 114.961 107.393C114.551 111.03 114.039 114.114 113.439 116.387C113.139 117.524 112.821 118.441 112.492 119.117C112.153 119.811 111.839 120.172 111.589 120.307C111.262 120.484 110.62 120.691 109.649 120.913C108.693 121.13 107.463 121.352 105.995 121.574C103.059 122.017 99.1939 122.454 94.709 122.855C85.7405 123.657 74.314 124.31 62.925 124.563C51.5334 124.816 40.1936 124.669 31.3935 123.874C26.9911 123.476 23.2434 122.917 20.449 122.172C19.0512 121.799 17.9098 121.385 17.0501 120.93C16.1819 120.471 15.6527 119.998 15.405 119.537C15.4059 119.539 15.4054 119.538 15.4036 119.532C15.3968 119.511 15.3725 119.436 15.3376 119.27C15.2981 119.084 15.2538 118.829 15.2056 118.506C15.1095 117.86 15.0012 116.968 14.8863 115.86C14.6567 113.645 14.4022 110.587 14.1655 106.966C13.6922 99.7252 13.2908 90.2453 13.3007 80.7751C13.3106 71.2997 13.7324 61.8559 14.8992 54.6774C15.4833 51.0844 16.2492 48.0907 17.2267 45.9512Z" fill="#FFDA1C" stroke="black"/>
<path d="M16.0208 50.8984C16.9523 49.0462 18.0207 48.0625 19.2055 47.8949C30.9329 46.8442 49.7978 46.2654 66.8893 46.2654C75.4365 46.2654 83.5339 46.4101 90.0671 46.7125C96.6232 47.0159 101.546 47.4763 103.786 48.0908C104.232 48.2132 104.688 48.5283 105.144 49.077C105.601 49.6253 106.038 50.3818 106.45 51.3352C107.272 53.2424 107.961 55.8621 108.516 58.9797C109.625 65.209 110.185 73.3286 110.272 81.4772C110.358 89.624 109.97 97.777 109.188 104.069C108.798 107.218 108.31 109.884 107.74 111.845C107.455 112.827 107.154 113.614 106.844 114.192C106.526 114.785 106.233 115.088 106.001 115.203C105.69 115.356 105.077 115.536 104.149 115.728C103.237 115.916 102.064 116.109 100.663 116.3C97.863 116.684 94.1768 117.063 89.8997 117.411C81.3465 118.106 70.4492 118.671 59.5878 118.891C48.724 119.11 37.909 118.982 29.5157 118.293C25.3169 117.948 21.7418 117.464 19.0756 116.818C17.7417 116.495 16.6528 116.136 15.833 115.742C15.0015 115.343 14.5072 114.936 14.2809 114.554C14.2852 114.561 14.2849 114.56 14.2808 114.548C14.2735 114.525 14.2541 114.466 14.2267 114.348C14.1898 114.19 14.148 113.971 14.1022 113.692C14.0109 113.136 13.9079 112.364 13.7984 111.405C13.5796 109.488 13.3371 106.841 13.1115 103.705C12.6602 97.4339 12.2776 89.2239 12.287 81.0228C12.2965 72.8159 12.6987 64.6419 13.8098 58.4321C14.366 55.3237 15.0943 52.7406 16.0208 50.8984Z" fill="#C7B338" stroke="black"/>
<path d="M120.401 53.7232L120.401 53.7232C120.298 53.605 120.254 53.5266 120.236 53.4849C120.283 53.4501 120.386 53.3946 120.583 53.3384C120.806 53.2746 121.109 53.2215 121.5 53.1832C123.078 53.0288 125.817 53.1378 129.761 53.4572C130.643 53.5387 131.174 53.9762 131.302 54.2446C131.325 54.2937 131.328 54.3225 131.329 54.3327C131.329 54.3327 131.329 54.3328 131.329 54.3328C131.305 54.3576 131.159 54.4642 130.709 54.4642C130.429 54.4642 129.97 54.4829 129.406 54.5059C129.137 54.5168 128.844 54.5287 128.536 54.5401C127.568 54.5755 126.42 54.6065 125.282 54.5896C124.141 54.5727 123.028 54.5077 122.125 54.3558C121.673 54.2798 121.289 54.1845 120.986 54.0694C120.676 53.9517 120.494 53.8288 120.401 53.7232ZM120.401 58.3716C120.298 58.2534 120.254 58.175 120.236 58.1333C120.283 58.0985 120.386 58.043 120.583 57.9868C120.806 57.923 121.109 57.8699 121.5 57.8317C123.078 57.6772 125.817 57.7863 129.761 58.1056C130.643 58.1871 131.174 58.6246 131.302 58.893C131.325 58.9421 131.328 58.971 131.329 58.9811C131.329 58.9812 131.329 58.9812 131.329 58.9812C131.305 59.006 131.159 59.1127 130.709 59.1127C130.429 59.1127 129.97 59.1314 129.406 59.1543C129.137 59.1653 128.844 59.1772 128.536 59.1885C127.568 59.224 126.42 59.2549 125.282 59.2381C124.141 59.2211 123.028 59.1561 122.125 59.0042C121.673 58.9283 121.289 58.8329 120.986 58.7179C120.676 58.6002 120.494 58.4773 120.401 58.3716L120.025 58.7012L120.401 58.3716ZM120.401 63.8404C120.298 63.7222 120.254 63.6438 120.236 63.6021C120.283 63.5673 120.386 63.5118 120.583 63.4555C120.806 63.3918 121.109 63.3387 121.5 63.3004C123.078 63.146 125.818 63.255 129.761 63.5744C130.643 63.6558 131.174 64.0934 131.302 64.3618C131.325 64.4109 131.328 64.4397 131.329 64.4499C131.329 64.4499 131.329 64.4499 131.329 64.45C131.305 64.4748 131.159 64.5814 130.709 64.5814C130.429 64.5814 129.97 64.6001 129.406 64.6231C129.137 64.634 128.844 64.6459 128.536 64.6572C127.568 64.6927 126.42 64.7237 125.282 64.7068C124.141 64.6898 123.028 64.6249 122.125 64.473C121.673 64.397 121.289 64.3017 120.986 64.1866C120.676 64.0689 120.494 63.946 120.401 63.8404L120.025 64.17L120.401 63.8404Z" fill="#4F4B32" stroke="black"/>
<path d="M68.46 80.5446C68.46 80.7287 68.3697 81.0057 68.1209 81.3839C67.8784 81.7526 67.5179 82.1681 67.0589 82.6177C66.1418 83.5158 64.8832 84.4997 63.5374 85.4545C60.8493 87.3617 57.8762 89.1093 56.7498 89.764C55.6233 90.4187 52.6333 92.1368 49.6486 93.5267C48.1542 94.2225 46.6787 94.8277 45.4478 95.1781C44.8317 95.3535 44.2943 95.4598 43.8565 95.4869C43.4073 95.5147 43.1258 95.4548 42.9695 95.364C42.8128 95.2729 42.6198 95.0566 42.4187 94.6502C42.2227 94.2542 42.0454 93.7319 41.8881 93.1068C41.5739 91.8578 41.3567 90.2683 41.2082 88.6175C40.9114 85.3201 40.8945 81.854 40.8945 80.5446C40.8945 79.2353 40.9114 75.7691 41.2082 72.4718C41.3567 70.8209 41.5739 69.2315 41.8881 67.9825C42.0454 67.3574 42.2227 66.8351 42.4187 66.4391C42.6198 66.0327 42.8128 65.8164 42.9695 65.7253C43.1258 65.6345 43.4073 65.5745 43.8565 65.6023C44.2943 65.6294 44.8316 65.7358 45.4478 65.9111C46.6787 66.2615 48.1542 66.8667 49.6486 67.5626C52.6333 68.9524 55.6233 70.6706 56.7498 71.3252C57.8762 71.9799 60.8493 73.7276 63.5374 75.6348C64.8832 76.5896 66.1418 77.5734 67.0589 78.4716C67.5179 78.9211 67.8784 79.3367 68.1209 79.7054C68.3697 80.0835 68.46 80.3606 68.46 80.5446Z" fill="white" stroke="black"/>
<path d="M50.2747 110.041C68.503 110.351 81.8243 106.121 91.5455 99.955C100.529 94.2569 106.411 86.9225 110.25 80.0454C110.39 88.1049 110.062 96.2804 109.342 102.757C108.953 106.251 108.452 109.235 107.855 111.434C107.556 112.535 107.238 113.421 106.907 114.071C106.566 114.739 106.251 115.078 106.001 115.202C105.69 115.355 105.077 115.535 104.149 115.727C103.237 115.915 102.064 116.107 100.663 116.299C97.863 116.683 94.1769 117.062 89.8998 117.41C81.3466 118.104 70.4495 118.67 59.5881 118.889C48.7245 119.109 37.9095 118.981 29.5163 118.292C25.3175 117.947 21.7424 117.463 19.0763 116.817C17.7424 116.494 16.6535 116.135 15.8337 115.741C15.0092 115.345 14.5163 114.942 14.2874 114.562C14.2868 114.56 14.276 114.534 14.2581 114.469C14.2358 114.388 14.2099 114.275 14.181 114.128C14.1234 113.835 14.0586 113.431 13.9885 112.921C13.8485 111.904 13.6906 110.492 13.5288 108.766C13.2303 105.581 12.9196 101.342 12.6838 96.5755C21.4127 104.351 33.5173 109.756 50.2747 110.041Z" fill="white" stroke="black"/>
</svg>
