<svg width="150" height="150" viewBox="0 0 150 150" fill="none" xmlns="http://www.w3.org/2000/svg">
<path d="M55 66V56H63V60.9091" stroke="#4F4B32" stroke-width="2" stroke-miterlimit="10" stroke-linecap="round" stroke-linejoin="round"/>
<path d="M50.8607 71.0177L74.5615 50.6637C75.5388 49.7788 77.0049 49.7788 77.9822 50.6637L101.194 71.0177C102.905 72.5664 101.683 75 99.484 75H52.571C50.1277 75 49.1503 72.5664 50.8607 71.0177Z" fill="#FFDA1C" stroke="#4F4B32" stroke-width="2" stroke-miterlimit="10" stroke-linecap="round" stroke-linejoin="round"/>
<path d="M100 75H53V104H100V75Z" stroke="#4F4B32" stroke-width="2" stroke-miterlimit="10" stroke-linecap="round" stroke-linejoin="round"/>
<path d="M83 86H69V104H83V86Z" fill="#FFDA1C" stroke="#4F4B32" stroke-width="2" stroke-miterlimit="10" stroke-linecap="round" stroke-linejoin="round"/>
<path d="M96 19.3648C95.75 16.5975 95 13.8302 93.75 11.3145C91.75 12.3208 89.75 12.0692 88.75 10.8113C87.75 9.55346 88 7.54088 89 5.77987C87 4.01887 84.5 2.50943 81.75 1.75472C81 3.7673 79.5 4.77358 77.75 4.77358C76.25 4.52201 75 3.01258 74.5 1C71.75 1.25157 69 2.00629 66.5 3.26415C67.25 5.27673 67 7.03774 65.75 8.04403C64.5 9.05031 62.5 8.79874 60.75 7.79245C59 9.80503 57.5 12.3208 56.75 15.088C58.75 15.8428 59.75 17.3522 59.75 19.1132C59.5 20.6226 58 21.8805 56 22.3836C56.25 25.1509 57 27.9182 58.25 30.434C60.25 29.6792 62 29.9308 63 31.1887C64 32.4465 63.75 34.4591 62.75 36.2201C64.75 37.9811 67.25 39.4906 70 40.2453C70.75 38.2327 72.25 37.2264 74 37.2264C75.5 37.478 76.75 38.9874 77.25 41C80 40.7484 82.75 39.9937 85.25 38.7358C84.5 36.7233 84.75 34.9623 86 33.956C87.25 32.9497 89.25 33.2013 91 34.2075C92.75 32.195 94.25 29.6792 95 26.9119C93 26.1572 92 24.6478 92 22.8868C92.5 21.1258 94 19.8679 96 19.3648Z" stroke="#4F4B32" stroke-width="2" stroke-miterlimit="10" stroke-linecap="round" stroke-linejoin="round"/>
<path d="M59 118.61C59 131.468 65.8 142.455 76 149C86.2 142.688 93 131.468 93 118.844V118.61C90.5714 118.377 88.3857 117.909 85.9571 117.442C82.3143 116.506 78.9143 114.87 75.7571 113C72.6 114.87 69.2 116.506 65.5571 117.442C63.6143 118.143 61.1857 118.61 59 118.61Z" fill="#FFDA1C" stroke="#4F4B32" stroke-width="2" stroke-miterlimit="10" stroke-linecap="round" stroke-linejoin="round"/>
<path d="M41 64.0608C41 53.378 31.4918 44.5531 20.0332 45.0175C9.79355 45.482 1.50434 53.6102 1.01674 63.3641C0.772939 68.9377 3.21094 74.0469 7.11175 77.7626C10.0374 80.5494 11.744 84.2652 11.744 88.2132V91H30.029V88.2132C30.029 84.2652 31.9794 80.5494 34.905 77.7626C38.8058 74.2791 41 69.4022 41 64.0608Z" stroke="#4F4B32" stroke-width="2" stroke-miterlimit="10" stroke-linecap="round" stroke-linejoin="round"/>
<path d="M22 91V74.7727L26 70" stroke="white" stroke-width="2" stroke-miterlimit="10" stroke-linecap="round" stroke-linejoin="round"/>
<path d="M22 75L17 70" stroke="white" stroke-width="2" stroke-miterlimit="10" stroke-linecap="round" stroke-linejoin="round"/>
<path d="M110 77.4586C120.701 66.1805 138.299 66.1805 149 77.4586M117.848 85.7293C124.268 78.9624 134.732 78.9624 141.152 85.7293M125.695 94C127.835 91.7444 131.165 91.7444 133.067 94" stroke="#4F4B32" stroke-width="2" stroke-miterlimit="10" stroke-linecap="round" stroke-linejoin="round"/>
<path d="M80 64C80 65.7368 77.8684 67 75.5 67C72.8947 67 71 65.5789 71 64C71 62.2632 73.1316 61 75.5 61C78.1053 61 80 62.2632 80 64Z" fill="white"/>
<path d="M69 132L72.8182 135L83 127" stroke="white" stroke-width="2" stroke-miterlimit="10" stroke-linecap="round" stroke-linejoin="round"/>
<path d="M29.5714 99.3692H12.4286C10.4694 99.3692 9 97.8 9 95.7077V94.6615C9 92.5692 10.4694 91 12.4286 91H29.5714C31.5306 91 33 92.5692 33 94.6615V95.7077C33 97.8 31.2857 99.3692 29.5714 99.3692ZM20.5102 108C16.5918 108 13.4082 104.6 13.4082 100.415V99.6308H27.6122V100.415C27.6122 104.6 24.4286 108 20.5102 108Z" fill="#FFDA1C" stroke="#4F4B32" stroke-width="2" stroke-miterlimit="10" stroke-linecap="round" stroke-linejoin="round"/>
<path d="M103.661 40.2121C103.182 44.5757 99.3515 47.4848 95.0424 47C90.7333 46.5151 87.8606 42.6363 88.3394 38.2727C88.8182 33.909 92.6485 31 96.9576 31.4848C101.027 31.9697 104.139 35.8484 103.661 40.2121Z" fill="#F6DE64"/>
</svg>
