<?xml version="1.0" encoding="UTF-8" standalone="no"?>
<!-- Created with Inkscape (http://www.inkscape.org/) -->

<svg
   xmlns:dc="http://purl.org/dc/elements/1.1/"
   xmlns:cc="http://creativecommons.org/ns#"
   xmlns:rdf="http://www.w3.org/1999/02/22-rdf-syntax-ns#"
   xmlns:svg="http://www.w3.org/2000/svg"
   xmlns="http://www.w3.org/2000/svg"
   xmlns:xlink="http://www.w3.org/1999/xlink"
   xmlns:sodipodi="http://sodipodi.sourceforge.net/DTD/sodipodi-0.dtd"
   xmlns:inkscape="http://www.inkscape.org/namespaces/inkscape"
   width="190.76459mm"
   height="36.247917mm"
   viewBox="0 0 190.76459 36.247917"
   version="1.1"
   id="svg8"
   inkscape:version="0.92.5 (2060ec1f9f, 2020-04-08)"
   sodipodi:docname="crypto.com logo.svg">
  <defs
     id="defs2">
    <path
       d="m 70.1,264.3 v 24.9 h 19.6 l 4.7,20 H 70.1 v 3 h 12.8 l -4.2,11.2 1.2,12.5 h -9.8 v 43.6 L 120,350.7 V 293.1 Z M 83,323.5 v 0 l 11.5,-7.5 13.1,9.9 -17.8,31.1 h -7.1 l -8.5,-7.8 v -4 l 8.8,-8.4 z"
       id="SVGID_1_"
       inkscape:connector-curvature="0" />
    <path
       d="m 70.1,264.3 -49.9,28.8 v 57.6 l 49.9,28.8 V 336 h -9.7 l 1.3,-12.5 -4.3,-11.2 h 12.7 v -3 H 45.9 l 4.6,-20 h 19.7 v -25 z m -37.5,61.6 v 0 l 13.2,-9.8 11.6,7.4 v 13.3 l 8.8,8.4 v 4 l -8.5,7.9 h -7.2 z"
       id="SVGID_3_"
       inkscape:connector-curvature="0" />
  </defs>
  <sodipodi:namedview
     id="base"
     pagecolor="#ffffff"
     bordercolor="#666666"
     borderopacity="1.0"
     inkscape:pageopacity="0.0"
     inkscape:pageshadow="2"
     inkscape:zoom="1.1894531"
     inkscape:cx="232.13793"
     inkscape:cy="3.8725744"
     inkscape:document-units="mm"
     inkscape:current-layer="layer1"
     showgrid="false"
     fit-margin-top="0"
     fit-margin-left="0"
     fit-margin-right="0"
     fit-margin-bottom="0"
     inkscape:window-width="1920"
     inkscape:window-height="1017"
     inkscape:window-x="1912"
     inkscape:window-y="70"
     inkscape:window-maximized="1" />
  <metadata
     id="metadata5">
    <rdf:RDF>
      <cc:Work
         rdf:about="">
        <dc:format>image/svg+xml</dc:format>
        <dc:type
           rdf:resource="http://purl.org/dc/dcmitype/StillImage" />
        <dc:title></dc:title>
      </cc:Work>
    </rdf:RDF>
  </metadata>
  <g
     inkscape:label="Layer 1"
     inkscape:groupmode="layer"
     id="layer1"
     transform="translate(-5.3750828,-113.61004)">
    <g
       id="g903"
       transform="matrix(0.31794097,0,0,0.31465205,-1.0473248,30.447499)">
      <path
         id="path817"
         d="m 70.1,264.3 -49.9,28.8 v 57.6 l 49.9,28.8 49.9,-28.8 v -57.6 z m 0,0 -49.9,28.8 v 57.6 l 49.9,28.8 49.9,-28.8 v -57.6 z"
         class="st0"
         inkscape:connector-curvature="0"
         style="fill:#ffffff" />
      <path
         id="path819"
         d="m 89.8,357 h -7.1 l -8.5,-7.8 v -4 l 8.8,-8.4 v -13.3 l 11.5,-7.5 13.1,9.9 z m -29.4,-21 1.3,-12.5 -4.3,-11.2 h 25.4 l -4.2,11.2 1.2,12.5 H 70 Z m 5.8,13.2 -8.5,7.9 h -7.2 l -17.9,-31.2 13.2,-9.8 11.6,7.4 v 13.3 l 8.8,8.4 z m -15.8,-60 h 39.3 l 4.7,20 H 45.8 Z m 19.7,-24.9 -49.9,28.8 v 57.6 l 49.9,28.8 49.9,-28.8 v -57.6 z"
         class="st1"
         inkscape:connector-curvature="0"
         style="fill:#2563eb" />
      <g
         id="g831">
	<g
   id="g829">
		<g
   id="g827">
			<defs
   id="defs822">
				<path
   d="m 70.1,264.3 v 24.9 h 19.6 l 4.7,20 H 70.1 v 3 h 12.8 l -4.2,11.2 1.2,12.5 h -9.8 v 43.6 L 120,350.7 V 293.1 Z M 83,323.5 v 0 l 11.5,-7.5 13.1,9.9 -17.8,31.1 h -7.1 l -8.5,-7.8 v -4 l 8.8,-8.4 z"
   id="path877"
   inkscape:connector-curvature="0" />

			</defs>

			<clipPath
   id="SVGID_2_">
				<use
   id="use824"
   style="overflow:visible"
   xlink:href="#SVGID_1_"
   x="0"
   y="0"
   width="100%"
   height="100%" />

			</clipPath>

		</g>

	</g>

</g>
      <g
         id="g843">
	<g
   id="g841">
		<g
   id="g839">
			<defs
   id="defs834">
				<path
   d="m 70.1,264.3 -49.9,28.8 v 57.6 l 49.9,28.8 V 336 h -9.7 l 1.3,-12.5 -4.3,-11.2 h 12.7 v -3 H 45.9 l 4.6,-20 h 19.7 v -25 z m -37.5,61.6 v 0 l 13.2,-9.8 11.6,7.4 v 13.3 l 8.8,8.4 v 4 l -8.5,7.9 h -7.2 z"
   id="path885"
   inkscape:connector-curvature="0" />

			</defs>

			<clipPath
   id="SVGID_4_">
				<use
   id="use836"
   style="overflow:visible"
   xlink:href="#SVGID_3_"
   x="0"
   y="0"
   width="100%"
   height="100%" />

			</clipPath>

		</g>

	</g>

</g>
      <path
         id="path845"
         d="m 176,348.6 c -13.2,0 -22.9,-10.3 -22.9,-23 0,-12.7 9.8,-23.3 23,-23.3 8.4,0 13.6,3.1 17.7,7.6 l -6.3,6.8 c -3.1,-3.3 -6.4,-5.5 -11.5,-5.5 -7.4,0 -12.8,6.4 -12.8,14.2 0,8 5.5,14.4 13.3,14.4 4.8,0 8.3,-2.3 11.5,-5.5 l 6.1,6.1 c -4.4,4.7 -9.5,8.2 -18.1,8.2"
         class="st2"
         inkscape:connector-curvature="0"
         style="fill:#2563eb" />
      <path
         id="path847"
         d="m 213.4,348.6 h -10.2 v -46.2 h 10.2 v 10.8 c 2.8,-6.6 7.9,-11.2 15.7,-10.8 v 10.8 h -0.6 c -8.9,0 -15.1,5.8 -15.1,17.6 z"
         class="st2"
         inkscape:connector-curvature="0"
         style="fill:#2563eb" />
      <polygon
         id="polygon849"
         points="282.4,302.2 259.9,361 249.6,361 254.5,348.6 235.2,302.2 246.1,302.2 259.2,336.5 271.8,302.2 "
         class="st2"
         style="fill:#2563eb" />
      <path
         id="path851"
         d="m 312.4,311.1 c -6.9,0 -12.9,5.6 -12.9,14.3 0,8.7 6.1,14.3 12.9,14.3 7,0 12.7,-5.5 12.7,-14.3 0,-8.8 -5.8,-14.3 -12.7,-14.3 m 2.3,37.4 c -7.3,0 -11.9,-3.7 -15,-7.8 V 361 h -10.2 v -58.8 h 10.2 v 8.3 c 3.3,-4.6 7.9,-8.3 15,-8.3 10.5,0 20.7,8.3 20.7,23.1 0,14.8 -10.1,23.2 -20.7,23.2"
         class="st2"
         inkscape:connector-curvature="0"
         style="fill:#2563eb" />
      <path
         id="path853"
         d="m 357.7,311.9 v 21.8 c 0,3.9 2,5.5 5.5,5.5 h 4 v 9.1 h -7 c -7.4,0 -12.7,-3.3 -12.7,-13 v -23.4 h -5.6 v -8.7 h 5.6 V 291 h 10.2 v 12.2 h 9.5 v 8.7 z"
         class="st2"
         inkscape:connector-curvature="0"
         style="fill:#2563eb" />
      <path
         id="path855"
         d="m 399.3,311.1 c -8.2,0 -13.4,6.4 -13.4,14.2 0,7.9 5.6,14.4 13.5,14.4 8.2,0 13.4,-6.4 13.4,-14.2 0.2,-7.9 -5.5,-14.4 -13.5,-14.4 m 0,37.5 c -13.5,0 -23.5,-10.3 -23.5,-23 0,-12.8 10.1,-23.3 23.7,-23.3 13.6,0 23.6,10.3 23.6,23.1 0,12.6 -10,23.2 -23.8,23.2"
         class="st2"
         inkscape:connector-curvature="0"
         style="fill:#2563eb" />
      <path
         id="path857"
         d="m 520.4,311.1 c -8.2,0 -13.4,6.4 -13.4,14.2 0,7.9 5.6,14.4 13.5,14.4 8.2,0 13.4,-6.4 13.4,-14.2 0.1,-7.9 -5.5,-14.4 -13.5,-14.4 m 0,37.5 c -13.5,0 -23.5,-10.3 -23.5,-23 0,-12.8 10.1,-23.3 23.7,-23.3 13.6,0 23.6,10.3 23.6,23.1 0,12.6 -10.1,23.2 -23.8,23.2"
         class="st2"
         inkscape:connector-curvature="0"
         style="fill:#2563eb" />
      <path
         id="path859"
         d="m 604.6,302.2 c 9.7,0 15.6,6.1 15.6,17 v 29.3 H 610 v -26.2 c 0,-7.1 -3.3,-10.8 -9,-10.8 -5.5,0 -9.5,3.9 -9.5,11 v 26.1 h -10.2 v -26.3 c 0,-6.9 -3.4,-10.8 -9,-10.8 -5.6,0 -9.5,4.2 -9.5,11.1 v 26 h -10.2 v -46.3 h 10.2 v 7.6 c 2.9,-3.9 6.7,-7.6 13.5,-7.6 6.4,0 10.8,3.1 13.2,7.8 3.7,-4.8 8.4,-7.9 15.1,-7.9"
         class="st2"
         inkscape:connector-curvature="0"
         style="fill:#2563eb" />
      <polygon
         id="polygon861"
         points="432,338.7 436.4,336.2 437,336.2 441.5,338.7 441.8,339.2 441.8,344.4 441.5,344.9 437,347.4 436.4,347.4 432,344.9 431.7,344.4 431.7,339.2 "
         class="st2"
         style="fill:#2563eb" />
      <path
         id="path863"
         d="M 472.7,348.5 C 459.5,348.2 450,337.7 450.2,325 c 0.2,-12.7 10.2,-23.1 23.5,-22.8 8.4,0.2 13.6,3.4 17.6,8 l -6.4,6.7 c -3,-3.3 -6.3,-5.7 -11.4,-5.8 -7.4,-0.1 -12.9,6.1 -13,14 -0.2,8 5.2,14.5 13,14.6 4.8,0.1 8.4,-2.1 11.6,-5.3 l 6,6.2 c -4.5,4.7 -9.7,8.1 -18.4,7.9"
         class="st2"
         inkscape:connector-curvature="0"
         style="fill:#2563eb" />
    </g>
  </g>
  <style
     id="style815"
     type="text/css">
	.st0{fill:#FFFFFF;}
	.st1{fill:#2563EB;}
	.st2{fill:#2563EB;}
</style>
</svg>
