<svg width="78" height="78" viewBox="0 0 78 78" fill="none" xmlns="http://www.w3.org/2000/svg">
<path d="M77.4668 24.5828H0.533203V55.6122H77.4668V24.5828Z" fill="#F0F5F9"/>
<path d="M77.4668 15.2487V28.396H0.533203V15.2487C0.534011 12.5285 1.61495 9.92002 3.53839 7.99658C5.46183 6.07314 8.07035 4.9922 10.7905 4.99139H67.2095C68.5566 4.99099 69.8906 5.25603 71.1353 5.77137C72.3799 6.28671 73.5108 7.04224 74.4634 7.9948C75.416 8.94735 76.1715 10.0783 76.6868 11.3229C77.2022 12.5676 77.4672 13.9016 77.4668 15.2487Z" fill="#F28623"/>
<path d="M77.4668 51.604V64.832C77.4665 67.3362 76.5502 69.7539 74.8906 71.6293C73.231 73.5046 70.9428 74.7082 68.4572 75.0131H9.55195C7.06483 74.7099 4.7746 73.5072 3.11322 71.6317C1.45183 69.7562 0.534136 67.3375 0.533203 64.832V51.6086L77.4668 51.604Z" fill="#65B54E"/>
<path opacity="0.12" d="M67.2506 9.26617H10.7935C9.20644 9.26617 7.68437 9.89664 6.56214 11.0189C5.43991 12.1411 4.80945 13.6632 4.80945 15.2502V47.2196C4.81133 47.8183 4.94135 48.4098 5.19078 48.9541C5.4402 49.4984 5.80325 49.9831 6.25553 50.3755C6.7078 50.7679 7.23883 51.0589 7.81292 51.229C8.38701 51.3991 8.99086 51.4444 9.5839 51.3618C45.0038 46.6056 62.3497 24.7915 69.3164 12.8554C69.5274 12.4923 69.639 12.08 69.6399 11.6601C69.6408 11.2401 69.531 10.8273 69.3215 10.4633C69.112 10.0994 68.8103 9.79704 68.4467 9.58686C68.0831 9.37668 67.6705 9.26607 67.2506 9.26617Z" fill="white"/>
<path d="M40.9624 48.3222C45.5579 47.2376 48.404 42.6329 47.3194 38.0374C46.2347 33.4419 41.63 30.5957 37.0345 31.6804C32.439 32.765 29.5929 37.3697 30.6775 41.9652C31.7622 46.5607 36.3668 49.4068 40.9624 48.3222Z" fill="#00247D"/>
<path d="M42.3865 46.8981L42.676 46.1989C42.7289 46.072 42.8182 45.9637 42.9326 45.8875C43.047 45.8113 43.1814 45.7707 43.3189 45.7708H44.0806C44.1718 45.7708 44.2622 45.7528 44.3465 45.7179C44.4307 45.683 44.5073 45.6318 44.5718 45.5673C44.6363 45.5028 44.6875 45.4262 44.7224 45.3419C44.7573 45.2576 44.7753 45.1673 44.7753 45.0761V44.3144C44.7751 44.1771 44.8157 44.0428 44.8919 43.9287C44.9681 43.8145 45.0765 43.7255 45.2034 43.673L45.9026 43.3835C45.9877 43.3487 46.0651 43.2973 46.1301 43.2323C46.1952 43.1674 46.2467 43.0902 46.2818 43.0051C46.3168 42.9201 46.3345 42.829 46.334 42.737C46.3336 42.6451 46.3148 42.5541 46.2789 42.4695L45.9895 41.7717C45.9357 41.6441 45.9214 41.5033 45.9486 41.3675C45.9758 41.2317 46.0431 41.1071 46.1418 41.01L46.6765 40.4753C46.7411 40.4108 46.7923 40.3342 46.8272 40.2499C46.8621 40.1656 46.8801 40.0752 46.8801 39.984C46.8801 39.8927 46.8621 39.8024 46.8272 39.7181C46.7923 39.6338 46.7411 39.5572 46.6765 39.4927L46.1418 38.958C46.0434 38.8606 45.9764 38.7361 45.9492 38.6004C45.9221 38.4647 45.9361 38.3239 45.9895 38.1962L46.2789 37.497C46.3139 37.4129 46.3319 37.3227 46.332 37.2316C46.3321 37.1405 46.3142 37.0503 46.2794 36.9661C46.2446 36.8819 46.1936 36.8054 46.1292 36.741C46.0648 36.6765 45.9883 36.6254 45.9042 36.5905L45.2049 36.3011C45.0781 36.2481 44.9697 36.1589 44.8935 36.0444C44.8174 35.93 44.7767 35.7956 44.7768 35.6582V34.8965C44.7768 34.8052 44.7589 34.7149 44.7239 34.6306C44.689 34.5463 44.6379 34.4698 44.5734 34.4053C44.5088 34.3407 44.4323 34.2896 44.348 34.2547C44.2637 34.2198 44.1734 34.2018 44.0821 34.2018H43.3204C43.1831 34.202 43.0489 34.1614 42.9347 34.0852C42.8205 34.0089 42.7315 33.9005 42.679 33.7737L42.3896 33.0744C42.3547 32.9894 42.3034 32.912 42.2384 32.8469C42.1734 32.7819 42.0962 32.7303 42.0112 32.6953C41.9261 32.6603 41.835 32.6426 41.7431 32.643C41.6511 32.6435 41.5602 32.6623 41.4755 32.6982L40.7778 32.9876C40.6502 33.0414 40.5093 33.0556 40.3735 33.0285C40.2377 33.0013 40.1132 32.934 40.0161 32.8353L39.4814 32.3005C39.417 32.2361 39.3405 32.1849 39.2563 32.15C39.1722 32.1151 39.0819 32.0971 38.9908 32.0971C38.8997 32.0971 38.8095 32.1151 38.7253 32.15C38.6411 32.1849 38.5646 32.2361 38.5003 32.3005L37.964 32.8353C37.8667 32.9336 37.7421 33.0007 37.6064 33.0279C37.4707 33.055 37.33 33.041 37.2023 32.9876L36.503 32.6982C36.4189 32.6632 36.3287 32.6451 36.2376 32.6451C36.1465 32.645 36.0563 32.6628 35.9721 32.6976C35.8879 32.7325 35.8114 32.7835 35.747 32.8479C35.6826 32.9123 35.6315 32.9888 35.5966 33.0729L35.3071 33.7722C35.2542 33.899 35.1649 34.0074 35.0505 34.0835C34.9361 34.1597 34.8017 34.2003 34.6642 34.2003H33.9025C33.7183 34.2003 33.5416 34.2735 33.4113 34.4037C33.281 34.534 33.2078 34.7107 33.2078 34.895V35.6567C33.208 35.794 33.1674 35.9282 33.0912 36.0424C33.015 36.1566 32.9066 36.2455 32.7798 36.298L32.0805 36.5875C31.9954 36.6223 31.9181 36.6737 31.853 36.7387C31.7879 36.8036 31.7364 36.8809 31.7014 36.9659C31.6664 37.0509 31.6486 37.1421 31.6491 37.234C31.6496 37.326 31.6683 37.4169 31.7042 37.5016L31.9937 38.1993C32.0474 38.3269 32.0617 38.4677 32.0345 38.6036C32.0074 38.7394 31.9401 38.8639 31.8413 38.961L31.3066 39.4957C31.2421 39.5602 31.1909 39.6368 31.1559 39.7211C31.121 39.8054 31.103 39.8958 31.103 39.987C31.103 40.0783 31.121 40.1686 31.1559 40.2529C31.1909 40.3372 31.2421 40.4138 31.3066 40.4784L31.8413 41.0131C31.9397 41.1104 32.0068 41.2349 32.0339 41.3707C32.061 41.5064 32.047 41.6471 31.9937 41.7748L31.7042 42.4741C31.6681 42.5586 31.6491 42.6495 31.6484 42.7414C31.6477 42.8333 31.6653 42.9245 31.7002 43.0096C31.7351 43.0946 31.7865 43.1719 31.8515 43.2369C31.9166 43.3019 31.9939 43.3533 32.079 43.3881L32.7782 43.6776C32.9051 43.7305 33.0134 43.8198 33.0896 43.9342C33.1658 44.0486 33.2064 44.183 33.2063 44.3205V45.0822C33.2063 45.1734 33.2243 45.2637 33.2592 45.348C33.2941 45.4323 33.3453 45.5089 33.4098 45.5734C33.4743 45.6379 33.5509 45.6891 33.6352 45.724C33.7194 45.7589 33.8098 45.7769 33.901 45.7769H34.6627C34.8 45.7767 34.9342 45.8173 35.0484 45.8935C35.1626 45.9697 35.2516 46.0781 35.3041 46.205L35.5935 46.9042C35.6284 46.9893 35.6798 47.0666 35.7447 47.1317C35.8097 47.1968 35.8869 47.2483 35.972 47.2833C36.057 47.3183 36.1481 47.3361 36.2401 47.3356C36.332 47.3351 36.4229 47.3164 36.5076 47.2805L37.2053 46.991C37.333 46.9373 37.4738 46.923 37.6096 46.9502C37.7454 46.9773 37.8699 47.0447 37.9671 47.1434L38.5018 47.6781C38.5663 47.7426 38.6429 47.7938 38.7272 47.8288C38.8115 47.8637 38.9018 47.8817 38.9931 47.8817C39.0843 47.8817 39.1747 47.8637 39.259 47.8288C39.3433 47.7938 39.4199 47.7426 39.4844 47.6781L40.0191 47.1434C40.1165 47.045 40.241 46.9779 40.3767 46.9508C40.5124 46.9237 40.6531 46.9377 40.7808 46.991L41.4801 47.2805C41.5647 47.3152 41.6553 47.3329 41.7468 47.3325C41.8382 47.3321 41.9287 47.3135 42.0129 47.278C42.0972 47.2424 42.1736 47.1906 42.2377 47.1254C42.3018 47.0602 42.3524 46.9829 42.3865 46.8981Z" fill="#F0F5F9"/>
<path d="M39.0472 33.2085L39 32.9038L38.9528 33.2085C38.6252 35.3032 38.6252 37.4361 38.9528 39.5308L39 39.8354L39.0472 39.5308C39.3748 37.4361 39.3748 35.3032 39.0472 33.2085ZM39.0472 40.4692L39 40.1645L38.9528 40.4692C38.6252 42.5639 38.6252 44.6968 38.9528 46.7915L39 47.0962L39.0472 46.7915C39.3748 44.6968 39.3748 42.5639 39.0472 40.4692ZM45.7915 40.0472L46.0962 40L45.7915 39.9528C43.6968 39.6252 41.5639 39.6252 39.4692 39.9528L39.1645 40L39.4692 40.0472C41.5639 40.3748 43.6968 40.3748 45.7915 40.0472ZM38.5308 40.0472L38.8354 40L38.5308 39.9528C36.4361 39.6252 34.3032 39.6252 32.2085 39.9528L31.9038 40L32.2085 40.0472C34.3032 40.3748 36.4361 40.3748 38.5308 40.0472ZM43.8354 35.2316L44.0182 34.9818L43.7683 35.1646C42.0584 36.4149 40.5527 37.9228 39.3047 39.6344L39.1234 39.8842L39.3732 39.7029C41.0827 38.452 42.5879 36.9436 43.8354 35.2316ZM38.7029 40.3656L38.8842 40.1158L38.6344 40.3047C36.9222 41.555 35.4143 43.0634 34.1646 44.776L33.9818 45.0258L34.2316 44.843C35.9448 43.5909 37.4532 42.0805 38.7029 40.3656ZM43.7683 44.8354L44.0182 45.0182L43.8354 44.7683C42.585 43.0584 41.0772 41.5527 39.3656 40.3047L39.1158 40.1234L39.3047 40.3656C40.5527 42.0772 42.0584 43.585 43.7683 44.8354ZM38.6344 39.7029L38.8842 39.8842L38.7029 39.6344C37.4526 37.9222 35.9442 36.4143 34.2316 35.1646L33.9818 34.9818L34.1646 35.2316C35.4143 36.9442 36.9222 38.4526 38.6344 39.7029ZM36.4452 33.7082L36.2928 33.4446L36.3644 33.7493C36.8646 35.8094 37.6807 37.7797 38.7837 39.5902L38.9451 39.8537L38.872 39.549C38.3706 37.4881 37.5519 35.5176 36.4452 33.7082ZM39.2239 40.4144L39.0624 40.1523L39.1356 40.457C39.6346 42.5175 40.4507 44.488 41.5548 46.2979L41.7147 46.5614L41.6431 46.2567C41.1431 44.1961 40.327 42.2253 39.2239 40.4144ZM45.2918 37.4452L45.5553 37.2928L45.2506 37.3644C43.1905 37.8646 41.2203 38.6807 39.4098 39.7837L39.1523 39.9375L39.457 39.8644C41.5154 39.3648 43.4838 38.5487 45.2918 37.4452ZM38.5856 40.2239L38.8492 40.0624L38.5445 40.1356C36.484 40.6346 34.5135 41.4507 32.7036 42.5548L32.4492 42.7147L32.7539 42.6431C34.8108 42.142 36.778 41.326 38.5856 40.2239ZM41.6431 33.7447L41.7147 33.4401L41.5548 33.7036C40.4508 35.513 39.6347 37.483 39.1356 39.543L39.0624 39.8476L39.2239 39.5841C40.3267 37.7741 41.1428 35.8043 41.6431 33.7447ZM38.8644 40.457L38.9375 40.1523L38.776 40.4159C37.6731 42.2263 36.857 44.1966 36.3568 46.2567L36.2852 46.5614L36.4376 46.2979C37.5443 44.4885 38.363 42.518 38.8644 40.457ZM45.2552 42.6431L45.5599 42.7147L45.2963 42.5548C43.4869 41.4508 41.517 40.6347 39.457 40.1356L39.1523 40.0624L39.4159 40.2239C41.2259 41.3267 43.1956 42.1428 45.2552 42.6431ZM38.543 39.8644L38.8476 39.9375L38.5841 39.776C36.7736 38.6731 34.8033 37.857 32.7432 37.3568L32.4385 37.2852L32.7021 37.4376C34.5115 38.5443 36.482 39.363 38.543 39.8644Z" fill="#00247D"/>
<path d="M39 41.6971C39.9373 41.6971 40.6971 40.9373 40.6971 40C40.6971 39.0627 39.9373 38.3029 39 38.3029C38.0627 38.3029 37.3029 39.0627 37.3029 40C37.3029 40.9373 38.0627 41.6971 39 41.6971Z" fill="#00247D"/>
</svg>
