<svg xmlns="http://www.w3.org/2000/svg" data-name="Layer 1" viewBox="0 0 512 512" id="flag"><rect width="505" height="460.11" x="3.5" y="25.94" fill="#017543" rx="69.02"></rect><path fill="#fff" d="M441.42,54H70.83A39.28,39.28,0,0,0,31.55,93.27V303.13a27.53,27.53,0,0,0,31.34,27.18C295.39,299.1,409.25,155.91,455,77.56A15.68,15.68,0,0,0,441.42,54Z" opacity=".12"></path><path fill="#fff" d="M436.16,225.12c-1.47-19.07-5-57.8-5-57.8h2.21a.9.9,0,0,0,.85-1.22c-1.13-3-4.17-10.82-7.22-16.85a.92.92,0,0,0-1.63,0l-3.48,7a.88.88,0,0,0-.09.5l6.13,57.43s3.82,39.29-6.75,50c-8.14,8.24-14.34,13.58-16.77,15.6a.44.44,0,0,0,.34.77c5.5-.68,24.95-4.47,28.84-23.83C433.6,256.67,437.62,244.18,436.16,225.12Z"></path><path fill="#fff" d="M405.65,252.59s4.45,3.49,3.1-26c7.22,11,13.15,20.33,15.48,24.82a.48.48,0,0,0,.9-.13c.38-1.93.73-6-1-12.25-.95-3.4-8-15-16.38-28.07L405,168.9l2.81,1.87a.38.38,0,0,0,.57-.41l-6.21-22a.38.38,0,0,0-.66-.12l-5.71,7.44a.37.37,0,0,0-.07.27c.27,1.94,3.1,22.55,5.66,45.25-4-6.09-8-12.15-11.59-17.56V167.38l1.78,1.42a.45.45,0,0,0,.7-.51l-6.8-18.59a.45.45,0,0,0-.75-.16c-1.36,1.39-5,5.51-4.66,9.63.38,5.06,2.13,5.77,2.13,5.77s.2,3.19.52,8.16c-3.65-5.42-6-8.87-6-8.87H379a.68.68,0,0,0,.51-1.12l-11.3-13a.67.67,0,0,0-1.17.33,86.15,86.15,0,0,0-1,12.82,1.42,1.42,0,0,0,.25.85c1.44,2.07,8.63,12.45,17.52,25.47.93,14,2,30.08,2.66,37.4,1.22,14.29,1.49,27.37-6.4,27.37,0,0-4.54.3-10.32-9.73s-17.64,22.2-17.64,22.2S343.57,286.31,340.7,247a.44.44,0,0,0-.84-.14A54.07,54.07,0,0,0,336.62,265c-.3,12.77,9.13,19.16,14.3,17.64s10.2-23.11,15.13-28c0,0,5.85,11.86,18.32,9.43s10-27.37,10-27.37l-3.79-37.18c4.19,6.19,8.53,12.62,12.65,18.8C404.57,231.52,405.55,244,405.65,252.59Z"></path><path fill="#fff" d="M344.22 232.15s3.65 20.07.61 31.63c0 0 .61 2.73 4-1.52s4.56-15.51 3.65-22.81S344.22 171 344.22 171s4.57 3.95 6.39 1.82-5.47-9.9-8.21-23.8c0 0-2.14-3-5.78 1.91s-1.52 12.46-1.52 12.46zM321.72 176.2c.61 10.34 4.56 68.11 4.56 68.11s4.69 23.6-27.39 37.77a.74.74 0 00.14 1.4c2.15.47 6.06.83 11.74-.63 9.13-2.35 16.92-10 20.17-24.55s-3.14-89.4-3.14-89.4 2.13 3.34 3 1.82c.77-1.27-3.14-15.53-4.45-20.2a1.2 1.2 0 00-1.78-.71c-2.19 1.32-6.28 4.22-6.79 7.73a2.3 2.3 0 00.15 1.19A58.84 58.84 0 01321.72 176.2z"></path><path fill="#fff" d="M288.21,193.66l5.12,74.27a.65.65,0,0,0,1.2.31c1.66-2.47,4.6-8.94,4.38-23.62-.12-8.64-.63-22.63-1.18-35.88,9,14.61,18.23,30.4,23.46,42.07a.66.66,0,0,0,1.25-.19,19.34,19.34,0,0,0-1.63-10.26c-2.22-4.88-10.58-24.63-23.79-48.05-.47-10.57-.84-18.24-.84-18.24h1a1.28,1.28,0,0,0,1.21-1.69c-1.75-5.15-7-20.41-8.26-21.42-1.53-1.22-5.48,3.64-5.48,6.69a15.72,15.72,0,0,0,1.52,6.08l.8,11.62c-2.11-3.35-4.3-6.73-6.58-10.1,0,0,5.17,2.43,4.26,0-.82-2.18-10.17-12.8-15.17-16.57a1,1,0,0,0-1.55.77v12.76c0,2.73,3.34,5.78,4,6.69C272.11,169.29,279.23,179.7,288.21,193.66Z"></path><path fill="#fff" d="M189.13,250.4s-2,1.78-5.45,4.55l.5-10.75a.37.37,0,0,0-.71-.17l-5.59,12.64s-.19,1.17-.36,3a191.5,191.5,0,0,1-30.3,18.68,1.43,1.43,0,0,0,.37,2.71,7.13,7.13,0,0,0,2.92-.44A194.17,194.17,0,0,0,177.4,269c.65,8.28,3.78,17.28,14.78,14.9,19.46-4.21,27.67-27.22,27.67-27.22,10,24.83,33.45,27.18,35.88,26.18,1.71-.7,3-5.19,3.57-7.79a2,2,0,0,0-1.38-2.32c-15.31-4.35-11.73-11.8-6.75-14.43C256.34,255.57,283.1,248,283.1,248c3.19-1.79,4.16-5.41,4.45-7.69a1.81,1.81,0,0,0-1.79-2H242.35a155.16,155.16,0,0,1,18.25-7.9h3.21a.83.83,0,0,0,.69-1.28l-.56-.85c9.13-2.13,14-8.82,14.3-14s-6.09-11.2-11.56-13.34-9.43.92-12.75,7.31,0,13.07,0,13.07l-23.44,10.34-3.63,10.9a1.56,1.56,0,0,0,1.34,2.05l8.07.74c7.3-1.53,15.51,3.65,15.51,3.65-14.29,7-10.95,19.46-10.95,19.46-16.52-4.24-17.33-29.5-17.94-38-.49-6.92-7.82-24-10.55-30.24a1,1,0,0,0-1.93,0l-3,7.71a2.91,2.91,0,0,0-.09,1.82l10.08,37.39S209.2,265.9,196.74,272s-13.69-3.65-13.69-3.65l.12-2.65A56.37,56.37,0,0,0,193.39,258c11-10.95,15.51-17,8.52-39.53h1.83a1.1,1.1,0,0,0,1-1.62c-1.69-3.14-5.58-9.92-8.58-11.76-3.95-2.44-4.87,8.65-4.87,10.86s3.35,2.52,3.35,2.52l5.47,14.29A20.77,20.77,0,0,1,189.13,250.4Zm73.15-31.55c-.37.08-.74.15-1.09.2,0,0-.1-.44-.23-1.1A1.13,1.13,0,0,0,262.28,218.85Z"></path><path fill="#fff" d="M207.68 192.31l7.3-19.73s-1.52 17.3 2.74 23.08S232 204.17 241.44 189c0 0 4.6 8.21 12.49 7.9s8.8-9.73 8.8-16.11-3-19.16-3-19.16 8.51 5.47 6.38 0-7.6-13.2-9.73-13.44c-1.78-.21-4.84 5.49-5.79 7.35a1.35 1.35 0 000 1.16c1.26 3 6.91 16.92 5.83 25.3-1.22 9.43-7.91 8.52-10.95-1.52-2.95-9.75.7-20.55-5.8-31.82a.77.77 0 00-1.27-.07l-3.95 5.14a.76.76 0 00-.13.65c.75 2.78 5.49 20.89 3.25 27.62-2.44 7.3-14 15.51-17.34 4-3-10.22 1-23.05 1.93-25.89a1.26 1.26 0 00-.13-1.1l-2.08-3.36a1.31 1.31 0 00-2-.29c-2.6 2.3-8.71 8.43-9.9 16-1.52 9.73-4 18.25-8.52 16.12s-6-16.69-4-28.18a.22.22 0 00-.34-.23c-.63.44-1.86 2-2.93 7.12-1.53 7.3-1.53 19.46 4.86 28S207.68 192.31 207.68 192.31zM183.43 168c4.91 0 2.66-4.91 2.66-4.91a21.15 21.15 0 002-8c.48-4.22-2.09-5.58-4.29-6a5 5 0 00-5.13 2.34c-3.23 5.47.83 13.68.83 13.68s-7.36 11-13.91 14.93-5.31 5.52-5.31 5.52C171.56 185.41 183.43 168 183.43 168zM183 154.84c1.5-.78 1.76.91 1.37 1.95a15.82 15.82 0 01-.78 1.75s-1.17 2-1.88.45A3.13 3.13 0 01183 154.84z"></path><path fill="#fff" d="M154.18,248.07c-.14-2.74-.76-12.51-1.52-24.16l1.1-.67c8.53,10.54,17.81-1,17.81-1,2.76,5,7.53,5,11.29,3.76s3.51-16.31,2.76-18.82c-.62-2.07-4,.32-5.14,1.2a.78.78,0,0,0-.3.76c.35,2.17,1.58,11.28-2.92,10.83s-3.5-8.53-3.15-10.89a.54.54,0,0,0-.56-.6l-1.09.08a.53.53,0,0,0-.46.39c-4.59,16.31-11.73,11.75-12.72,7.52s-.25-7.53-2-7.78c-.64-.09-2.84,1.38-5.39,3.29-1.29-19.69-2.63-39.92-2.63-39.92s6,5,4.76-1.76c-1-5.46-4.8-16-6.23-19.79a.88.88,0,0,0-1.52-.25L141,156.73a.88.88,0,0,0-.16.84,23.89,23.89,0,0,1,1.35,6.21c0,2.51,2.9,42.15,3.71,48.17.13.94.37,2.39.65,4.2C144,218.25,142,220,142,220l-1.25-3.5s-6.53-9.54-11.55-7.53-7,7.27-8,15.05,3.76,10.54,7.27,11.16,9.79-5.13,9.79-5.13c.75,8.77-5.52,14.54-5.52,14.54-11.41,7.44-15.56,9.79-22.33,7-5.59-2.28-5.71-16.5-5.58-21.42a.42.42,0,0,0-.79-.2c-5.21,9.94-3,25.66,4.11,31.15,7.53,5.77,13.55,2.26,26.09-6.77s10-25.34,10-25.34l3.65-2.21c.82,10.09.46,22.54-5.41,29.87-9.78,12.23-24.33,15.74-31.11,14.74s-17.53-5-12.81-34.27a.25.25,0,0,0,0-.19l-.82-1.32a.28.28,0,0,0-.5.06A64.59,64.59,0,0,0,93.3,254.6c-.25,9.78,3.18,34,30.44,26.51S154.61,256.1,154.18,248.07Z"></path><path fill="#fff" d="M89.38,198.93c2.41-4.47,3.1-22.18,6.54-26.14,0,0-.17,6.88-.52,10.66s-1.54,22,13.42,22l2.81,35.3a.73.73,0,0,0,1.23.46c1.13-1.08,2.73-2.93,2.84-4.8.17-2.93-2.07-34.74-2.07-34.74s3.62-2.07,6.2-8.95c0,0,1.89,10,9.8,9.81s10.07-6.54,10.54-11.7-3.49-21.33-3.49-21.33,5.16.69,2.92-3.26-5-9.17-6.36-9.15-5.08,4.5-4.86,7.6,4.17,13.76,5,17.2,3,9.28-1.5,10-9.16-3.78-9.5-10.49-1-17.2-1-17.2-2.75-7.45-4.47-7.08-2.92,4.85-2.41,8.11,3.27,16.71,2.93,20.4a9.74,9.74,0,0,1-4.81,7.73l-1.9-27.44s3.27-.51,1.72-5.33-1.91-10.12-4.57-11.51-4.37,3.25-4.37,6.52,2.23,11.75,2.23,11.75l2.11,27.27h0c-7.52.73-10.23-14.68-7.78-19.76s3.85-14,1.06-15.26-6.91,2.88-9.32,8.73-1.72,25.28-7.57,25.45c-5.29.16-4.8-23.52-4.67-28a.44.44,0,0,0-.72-.37c-.71.6-1.82,2.18-2.86,6.35-1.72,6.88,1.89,25.11,4.81,29.41S87,203.41,89.38,198.93Z"></path><path fill="#fff" d="M102.61 212.81C98.86 213.92 86 218.46 79.73 230a.38.38 0 00.53.5c3.5-2.28 14-8.91 22.87-12.11a.79.79 0 00.53-.76v-4A.81.81 0 00102.61 212.81zM90.41 266.86c-2.66 0-2 3.61-5 4.23s-2.35-6.27-2.2-8.77 1.42-6.12 2-9.41a17.11 17.11 0 00-.42-6.43.53.53 0 00-1-.11 59 59 0 00-3.6 10.3c-1.73 6.9-2.82 22.42 4.23 22.73S93.08 266.86 90.41 266.86zM416.18 181.41c2.09-.62 2.3-7.4 2-13.65s-2.91-10.95-4.06-11.36-3.34 4.69-3.34 4.69a45.67 45.67 0 013.76 9.38C416 175.78 414.1 182 416.18 181.41zM358.29 194c1.52.6 2.89-1.45 2.89-1.45s4.86 11 6.16 11.4c0 0 1.21 1.3 1.59-2.2s-.61-13.68.54-15.05 2.12-.31 2.5.3 2.44 1.07 2.13-1.52-1.82-6-4.25-5-3.73 4.72-3.2 7.83a54.82 54.82 0 01.23 8.9s-3.42-10-5.32-11.1-3.57-1.37-3.73.53S356.77 193.38 358.29 194zM377.05 207.14c-3.49 2.77-15.65 12.57-16.56 15.43-1.06 3.35 2 2 2 2s16.27-9.73 16.88-12.47a7.47 7.47 0 00-.77-4.59A1 1 0 00377.05 207.14zM376.81 237.63c4-1.39 3.42-7.26 2.65-9.89s-2.85-8.06-5.33-5.63-2.08 3.5 1.11 6.85c2.64 2.75 1.65 7 1.22 8.35A.27.27 0 00376.81 237.63zM307.64 160.75c.63 2.7.1 7 .18 9.18a.64.64 0 001.09.43 10.56 10.56 0 002.91-6.47c.66-5.36-2.87-14.54-4.83-14.84s-4.57 2-3.26 5.57S306.85 157.36 307.64 160.75zM311.3 180.28c0-1.51-.13-2.75-1.31-2.23s-.39 4.65-2.35 5.82-1.82-6.4-2.61-4.18.13 7.19 2.09 7.74 3.27-3 3.27-3 2.08 2.67 4.43 2.28 1.58-9.47 1.58-9.47-1.57-1.17-1.92.92 0 4.18-1.61 4.83S311.3 181.78 311.3 180.28zM244.05 206.1c-.35 2.09 0 4.18-1.6 4.83s-1.57-1.17-1.57-2.68-.13-2.75-1.31-2.23-.39 4.65-2.35 5.83-1.83-6.4-2.61-4.18.13 7.18 2.09 7.73 3.26-3 3.26-3 2.09 2.68 4.44 2.28 1.57-9.46 1.57-9.46S244.41 204 244.05 206.1zM121.57 157.47c2.35.39 4.44-2.29 4.44-2.29s1.3 3.59 3.26 3 2.88-5.52 2.09-7.74-.64 5.36-2.61 4.18-1.17-5.3-2.35-5.82-1.31.72-1.31 2.23 0 3.33-1.57 2.68-1.25-2.74-1.6-4.83S120 148 120 148 119.22 157.08 121.57 157.47zM389.61 274.38s-.34-.68.69-2.51 1.71-3.76-.74-4.79-6.45-1-5.54 1.83 3 1.48 2.51 3.88-.83 2.39-2.64 4.44-2.64 4.45 0 4.91 8-1 9.37-3.54S393.63 273.46 389.61 274.38zM271.63 278.68c1.3 3.3 7 1.4 9.5 0s9.77-6.3 6.54-6.8-9.84 3.91-11.34 3.41-2.5-2.65-1.6-5.23 2.5-4.59.2-4.59-10.21 4.91-8.11 6.41c0 0 4.41-3.1 4.81-1.2S270.33 275.38 271.63 278.68zM179.05 181.27c-1.14-.5-3.54 3.5-4.84 5.51s-3 10.4 2.63 11c4 .44 8.14-5.5 8.21-7.5s-1.21-1.72-2.5.14-2.86 4-5.29 2.64-.35-7.57 1.36-9.5C178.62 183.56 180.19 181.77 179.05 181.27zM169.46 252.1c1.76 0 2.3-3.22 2.94-4.83s1.83-10.61-1.39-12.12-5.14.65-5.25 4.3 4.18 2.76 4.18 2.76C170.9 248.52 167.69 252.1 169.46 252.1zM85.89 153c1.42 1.08 1.31-1 2.72-1.09s1 3.6 1 3.6c0 1.09-.81 5.29-1.14 7.1a.29.29 0 00.5.25c2.31-2.61 3.06-9.28 3.26-11.26.22-2.17-.55-5.46-3.6-3.91S84.48 151.89 85.89 153zM228.88 171.63a.72.72 0 001.21-.38 29.9 29.9 0 00.62-13.24c-1.41-6.88-1.55-7-3.09-7.25s-3 .79-2.53 2.47S229.43 162.08 228.88 171.63zM366.18 325.22c-6 .12-15 3.19-18.1 3.67s-6.85.12-7.33-2.13.83-4 1.9-3.08 4.72 1.3 3.42-2.12-6.38-5.57-6.38-5.57a7.36 7.36 0 00-1.42-4.13c-1.42-1.78-3.9-1.9-3.9.46a9.31 9.31 0 01-3.2 6.51c-1.89 1.78-4.14 7-1.3 7.93s5-2.61 5-2.61 2.13 3-2.13 5.57-26.33 3.85-26.33 3.85c-10.95 2.73-78 4.1-108.11 2.73-29.8-1.35-69-16.11-69.87-16.4.58.46 19 15.34 30 20.1 9.5 4.15 37.14 8.52 37.14 8.52s59.5 1.42 82 1.31 49.91-2.84 52.64-3.44 8.63.24 9.46 1.42a2.89 2.89 0 01-.95 4.14c-1.66.95-4-3.54-4.73-.83s1.89 4.86 4.85 7.45 2.6 6 5.32 6.16 2.37-2.37 2.25-4 1.3-3.07 3-3.78 2.25-4.49 2.25-6.27-2-1.66-3.2-.36a2.69 2.69 0 01-2.37 1.07 11.93 11.93 0 012.25-6.74c2.25-2.72 3-.36 8.28.35s4.73-.47 7.45-3.67 3.79-.59 3.79-.59 2.24 8.64 7.93 5.21 5-9.7 4.25-13.25S372.21 325.1 366.18 325.22zm-31.13 13.7a1.47 1.47 0 111.46-1.46A1.46 1.46 0 01335.05 338.92zm3.17 4.39a1.47 1.47 0 111.46-1.47A1.46 1.46 0 01338.22 343.31zm.35-9.79a1.46 1.46 0 111.46-1.46A1.46 1.46 0 01338.57 333.52zm5.06 8.33a1.47 1.47 0 01-1.47-1.47 1.45 1.45 0 01.49-1.08 1.47 1.47 0 00-.48 1.08 1.46 1.46 0 101.76-1.43 1.47 1.47 0 01-.3 2.9zm.49-5.4a1.47 1.47 0 111.47-1.47A1.47 1.47 0 01344.12 336.45zm10 0a2.33 2.33 0 112.33-2.33A2.32 2.32 0 01354.13 336.47zm13.14-.92a2.33 2.33 0 112.33-2.33A2.33 2.33 0 01367.27 335.55z"></path></svg>