<svg width="78" height="78" viewBox="0 0 78 78" fill="none" xmlns="http://www.w3.org/2000/svg">
<path d="M77.4668 14.2106V63.7894C77.4664 66.5098 76.3856 69.1187 74.4622 71.0425C72.5387 72.9662 69.9299 74.0474 67.2095 74.0482H10.7905C8.07058 74.0458 5.46277 72.9641 3.53963 71.0407C1.6165 69.1173 0.53522 66.5093 0.533203 63.7894V14.2106C0.534011 11.4903 1.6149 8.88164 3.5383 6.95795C5.4617 5.03427 8.07021 3.95299 10.7905 3.95178H67.2095C68.5567 3.95158 69.8907 4.21681 71.1354 4.73231C72.38 5.24781 73.5109 6.00349 74.4635 6.95617C75.416 7.90885 76.1715 9.03987 76.6869 10.2846C77.2022 11.5293 77.4672 12.8634 77.4668 14.2106Z" fill="#EF2B2D"/>
<path d="M39.8699 49.9215C37.6056 52.7548 34.5172 54.8148 31.0316 55.8169C27.5459 56.819 23.835 56.7137 20.4117 55.5156C16.9885 54.3175 14.0218 52.0857 11.9218 49.1287C9.82183 46.1716 8.69213 42.6353 8.68885 39.0084C8.68557 35.3815 9.80887 31.8432 11.9035 28.8823C13.9982 25.9215 16.9607 23.6843 20.3818 22.48C23.8029 21.2757 27.5136 21.1637 31.0011 22.1595C34.4886 23.1553 37.5807 25.2097 39.8501 28.0389C37.47 26.2071 34.5491 25.2174 31.5458 25.2251C29.726 25.2059 27.9204 25.5478 26.2336 26.231C24.5467 26.9142 23.0121 27.9251 21.7185 29.2052C20.4248 30.4853 19.3979 32.0092 18.697 33.6887C17.9961 35.3683 17.6352 37.1702 17.6352 38.9901C17.6352 40.81 17.9961 42.6119 18.697 44.2915C19.3979 45.971 20.4248 47.495 21.7185 48.7751C23.0121 50.0552 24.5467 51.066 26.2336 51.7492C27.9204 52.4324 29.726 52.7743 31.5458 52.7551C34.5589 52.7657 37.489 51.7683 39.8699 49.9215Z" fill="white"/>
<path d="M48.5824 32.4157L50.4806 36.2624L54.7249 36.8794L51.6537 39.8729L52.3788 44.1005L48.5824 42.1048L44.7845 44.1005L45.5097 39.8729L42.4384 36.8794L46.6842 36.2624L48.5824 32.4157Z" fill="white"/>
<path opacity="0.12" d="M67.2476 8.22657H10.7905C9.20371 8.22657 7.68187 8.85682 6.55969 9.97872C5.4375 11.1006 4.80686 12.6223 4.80646 14.2091V46.18C4.80831 46.7787 4.93832 47.3701 5.18776 47.9143C5.4372 48.4586 5.80028 48.9432 6.25259 49.3354C6.7049 49.7277 7.23595 50.0186 7.81004 50.1885C8.38414 50.3585 8.98796 50.4035 9.58091 50.3207C45.0008 45.566 62.3467 23.7519 69.3164 11.8158C69.5276 11.4525 69.6392 11.0399 69.64 10.6197C69.6407 10.1995 69.5307 9.78648 69.3208 9.42241C69.111 9.05834 68.8088 8.75607 68.4448 8.54611C68.0808 8.33615 67.6678 8.22592 67.2476 8.22657Z" fill="white"/>
</svg>
