<svg width="78" height="78" viewBox="0 0 78 78" fill="none" xmlns="http://www.w3.org/2000/svg">
<path d="M77.4668 14.2106V63.7894C77.4682 65.9505 76.7862 68.0567 75.5183 69.8069C74.5945 71.0846 73.3877 72.1314 71.9924 72.8655C70.597 73.5997 69.0508 74.0013 67.4746 74.039H46.2988C46.2729 72.7304 45.7092 71.4401 44.6063 70.6448C43.9405 70.1573 43.0676 69.8679 41.9997 69.8679C40.9982 69.8409 40.0187 70.1642 39.2301 70.7819C38.8705 70.8078 38.5125 70.8414 38.153 70.8596C37.4411 70.4292 36.6297 70.191 35.7981 70.1683C34.9665 70.1456 34.1433 70.3392 33.409 70.7301C32.1781 71.4324 31.5017 72.7106 31.3904 74.039H10.5254C8.55815 73.9895 6.64681 73.374 5.02029 72.2663C3.39376 71.1585 2.12099 69.6054 1.35435 67.793C0.810067 66.5285 0.53061 65.166 0.533221 63.7894V14.2106C0.53725 11.4913 1.61917 8.8845 3.54187 6.96151C5.46458 5.03852 8.07122 3.95621 10.7905 3.95178H30.7476C30.9867 5.36249 31.8673 6.66198 33.3983 7.19213C33.9099 7.36589 34.447 7.45241 34.9873 7.44807C35.7029 7.45692 36.4108 7.30052 37.0561 6.99104C38.1542 7.08092 39.2578 7.08092 40.3559 6.99104C41.0855 7.43856 41.9284 7.667 42.7842 7.64916C43.405 7.65862 44.0212 7.54201 44.5956 7.30639C46.049 6.7092 46.8701 5.38381 47.0499 3.96397H67.2095C69.223 3.96381 71.1921 4.5559 72.8715 5.66652C74.551 6.77714 75.8667 8.35723 76.6548 10.2101C76.8882 10.7662 77.0742 11.3411 77.2109 11.9285C77.3823 12.6771 77.4681 13.4427 77.4668 14.2106Z" fill="#00247D"/>
<path d="M77.4668 56.2849V63.7894C77.4682 65.9505 76.7862 68.0568 75.5183 69.807L47.6257 52.9242L44.5987 51.0961L41.957 49.4965L44.5987 48.3951L44.428 48.2915L43.0173 47.4368L39 45.01L37.2984 43.9756L31.5977 40.5234L30.7765 40.0359L30.3743 39.7876L29.0748 39L19.9571 33.4775L17.0854 31.7424L15.6747 30.8877L0.533238 21.7242V14.2106C0.527581 12.0474 1.21349 9.93893 2.49086 8.19305L30.3698 25.0743L33.3968 26.9024L36.0461 28.5096L33.4044 29.6034L35.5159 30.8862L36.9266 31.7408L39 32.99L40.7017 34.0168L46.4116 37.4766L47.2235 37.9732L47.6257 38.2124L48.9237 38.9985L59.9854 45.7016L62.8586 47.4368L64.2678 48.2915L77.4668 56.2849Z" fill="#F0F5F9"/>
<path d="M77.4668 58.3355V63.7894C77.4692 64.5584 77.3833 65.3251 77.2109 66.0745L47.836 48.293L47.6318 48.165L46.4253 47.4383H46.4176L44.6047 46.3445L40.7154 43.9771L39 42.9488L32.4782 39L31.5976 38.4699L30.7735 37.9747L30.3713 37.7356L23.3543 33.4775L20.4903 31.7424L19.0796 30.8877L0.533224 19.6645V14.2106C0.531679 13.4417 0.617543 12.675 0.789161 11.9255L30.3743 29.8259L31.5931 30.5693L32.1308 30.8938L33.3968 31.6555L33.4044 31.6647L33.5248 31.75L37.2938 34.0245L38.9863 35.0589H39L45.5219 39L46.4115 39.5393L47.2235 40.0344L47.6257 40.2736L56.5927 45.7031L59.4644 47.4383L60.8751 48.293L77.4668 58.3355Z" fill="#EF2B2D"/>
<path d="M77.4668 14.2106V25.152L67.9956 30.8877L63.7208 33.4775L60.9253 35.1701L58.043 33.4775L48.9237 39L47.6257 39.7861L47.2266 40.0344L46.4146 40.5219L40.7124 43.9755L39 45.01L34.9827 47.4368L33.5812 48.2914L33.409 48.395L33.4014 48.4027L31.5976 49.4965L30.3789 50.2414L1.35435 67.793C0.810067 66.5285 0.53061 65.166 0.533221 63.7894V52.848L8.06357 48.293L12.3399 45.7031L15.1354 44.0106L18.0055 45.7031L29.0748 39L30.3743 38.2139L30.7765 37.9747L31.5976 37.4781L37.2983 34.0168L39 32.99L41.0688 31.7423L42.4795 30.8877L44.5987 29.5973L46.4115 28.5035L47.6303 27.7677L76.6548 10.207C76.8882 10.7632 77.0742 11.338 77.2109 11.9255C77.3825 12.675 77.4684 13.4417 77.4668 14.2106Z" fill="#F0F5F9"/>
<path d="M77.4668 14.2106V19.6645L58.9266 30.8877L57.5159 31.7423L54.6427 33.4775L47.6257 37.7355L47.2266 37.9747L46.4146 38.4607L45.5219 39L39 42.9488L37.2984 43.9755L33.409 46.3338L33.4014 46.343L31.5977 47.4292V47.4368H31.5885L30.3698 48.1726L30.1732 48.2914L0.789188 66.0715C0.616769 65.3221 0.530895 64.5553 0.53325 63.7863V58.3324L17.1387 48.2884L18.5494 47.4337L21.4165 45.7031L30.3743 40.2751L30.7765 40.0359L31.5977 39.5408L32.4782 39.0015L38.9909 35.0528H39L40.7017 34.0184L44.4707 31.7439L44.5987 31.6586L45.8723 30.8892L46.4116 30.5647L47.6303 29.8289L77.2109 11.9194C77.383 12.6709 77.4688 13.4396 77.4668 14.2106Z" fill="#EF2B2D"/>
<path d="M77.4668 30.8877H0.533203V48.2914H77.4668V30.8877Z" fill="#F0F5F9"/>
<path d="M47.6241 74.0467L47.6241 3.95331L30.3788 3.95331L30.3788 74.0467H47.6241Z" fill="#F0F5F9"/>
<path d="M77.4668 33.4775V45.7016H44.5986V74.0482H33.4014V45.7016H0.533203V33.4775H33.4014V3.95178H44.5986V33.4775H77.4668Z" fill="#EF2B2D"/>
<path opacity="0.12" d="M67.9955 7.63849H10.2999C8.67041 7.63849 7.10765 8.2858 5.95543 9.43803C4.8032 10.5903 4.15588 12.153 4.15588 13.7825V46.4404C4.15695 47.0567 4.29002 47.6656 4.54615 48.2261C4.80228 48.7867 5.17552 49.2858 5.64075 49.69C6.10598 50.0941 6.6524 50.3939 7.24322 50.5692C7.83404 50.7445 8.45555 50.7912 9.06592 50.7061C45.246 45.8326 62.991 23.5599 70.1283 11.345C70.3459 10.97 70.4609 10.5444 70.4616 10.1109C70.4624 9.67738 70.349 9.25131 70.1328 8.87557C69.9166 8.49983 69.6052 8.18766 69.23 7.97049C68.8548 7.75333 68.429 7.63882 67.9955 7.63849Z" fill="white"/>
</svg>
