<svg width="78" height="78" viewBox="0 0 78 78" fill="none" xmlns="http://www.w3.org/2000/svg">
<path d="M77.4668 14.2792V63.8594C77.4681 65.6092 77.0224 67.3302 76.1719 68.8593C75.4951 70.0638 74.5852 71.1213 73.4952 71.9702H4.49871C3.41124 71.1204 2.50346 70.063 1.82813 68.8593C0.977649 67.3302 0.531916 65.6092 0.533206 63.8594V37.6167L3.47344 36.436L24.2379 28.0845L36.2822 9.29294L39.6673 4.02185H67.2095C68.5566 4.02145 69.8906 4.28649 71.1353 4.80183C72.3799 5.31716 73.5108 6.07269 74.4634 7.02525C75.416 7.97781 76.1715 9.10873 76.6868 10.3534C77.2022 11.598 77.4672 12.932 77.4668 14.2792Z" fill="#F0F5F9"/>
<path d="M76.1719 9.29295H34.5546L37.5208 5.78904L39.6673 4.02186H67.2095C69.038 4.01987 70.8337 4.50773 72.4098 5.4347C73.9859 6.36168 75.285 7.69393 76.1719 9.29295Z" fill="#D11536"/>
<path d="M77.4668 14.8261H34.5546V20.1003H77.4668V14.8261Z" fill="#D11536"/>
<path d="M77.4668 25.6318H34.5546V30.906H77.4668V25.6318Z" fill="#D11536"/>
<path d="M77.4668 36.436H0.533203V41.7102H77.4668V36.436Z" fill="#D11536"/>
<path d="M77.4668 47.2418H0.533203V52.5068H77.4668V47.2418Z" fill="#D11536"/>
<path d="M77.4668 58.046H0.533203V63.311H77.4668V58.046Z" fill="#D11536"/>
<path d="M76.1719 68.8594C75.4951 70.0638 74.5852 71.1214 73.4952 71.9702C71.6969 73.3689 69.4831 74.127 67.2049 74.1244H10.7905C8.51192 74.1267 6.2977 73.3687 4.49871 71.9702C3.41123 71.1204 2.50346 70.063 1.82812 68.8594H76.1719Z" fill="#D11536"/>
<path d="M39.6673 4.02185V41.6858H0.533204V14.2792C0.532803 12.932 0.797843 11.598 1.31318 10.3534C1.82851 9.10873 2.58405 7.97781 3.53661 7.02525C4.48916 6.07269 5.62008 5.31716 6.86473 4.80183C8.10939 4.28649 9.44339 4.02145 10.7905 4.02185H39.6673Z" fill="#002868"/>
<path d="M5.36706 6.98651L6.12116 8.51147L7.80609 8.75675L6.58581 9.9435L6.87374 11.6208L5.36706 10.8286L3.86038 11.6208L4.14831 9.9435L2.92804 8.75675L4.61296 8.51147L5.36706 6.98651Z" fill="#F0F5F9"/>
<path d="M15.1018 6.98651L15.8559 8.51147L17.5409 8.75675L16.3206 9.9435L16.6085 11.6208L15.1018 10.8286L13.5952 11.6208L13.8831 9.9435L12.6628 8.75675L14.3477 8.51147L15.1018 6.98651Z" fill="#F0F5F9"/>
<path d="M24.8366 6.98651L25.5907 8.51147L27.2756 8.75675L26.0554 9.9435L26.3433 11.6208L24.8366 10.8286L23.3299 11.6208L23.6179 9.9435L22.3976 8.75675L24.0825 8.51147L24.8366 6.98651Z" fill="#F0F5F9"/>
<path d="M34.5714 6.98651L35.3255 8.51147L37.0104 8.75675L35.7917 9.9435L36.0781 11.6208L34.5714 10.8286L33.0647 11.6208L33.3526 9.9435L32.1324 8.75675L33.8188 8.51147L34.5714 6.98651Z" fill="#F0F5F9"/>
<path d="M20.2754 13.3423L21.0295 14.8672L22.7144 15.1125L21.4957 16.2993L21.7836 17.9766L20.2754 17.1844L18.7687 17.9766L19.0567 16.2993L17.8379 15.1125L19.5228 14.8672L20.2754 13.3423Z" fill="#F0F5F9"/>
<path d="M10.2345 13.3423L10.9886 14.8672L12.6735 15.1125L11.4532 16.2993L11.7411 17.9766L10.2345 17.1844L8.72778 17.9766L9.01571 16.2993L7.79544 15.1125L9.48036 14.8672L10.2345 13.3423Z" fill="#F0F5F9"/>
<path d="M30.3179 13.3423L31.0705 14.8672L32.7554 15.1125L31.5367 16.2993L31.8246 17.9766L30.3179 17.1844L28.8112 17.9766L29.0977 16.2993L27.8789 15.1125L29.5638 14.8672L30.3179 13.3423Z" fill="#F0F5F9"/>
<path d="M34.5714 20.8726L35.3255 22.3991L37.0104 22.6429L35.7917 23.8311L36.0781 25.5069L34.5714 24.7163L33.0647 25.5069L33.3526 23.8311L32.1324 22.6429L33.8188 22.3991L34.5714 20.8726Z" fill="#F0F5F9"/>
<path d="M30.3179 27.2284L31.0705 28.7549L32.7554 28.9986L31.5367 30.1869L31.8246 31.8627L30.3179 31.072L28.8112 31.8627L29.0977 30.1869L27.8789 28.9986L29.5638 28.7549L30.3179 27.2284Z" fill="#F0F5F9"/>
<path d="M34.5714 34.7587L35.3255 36.2852L37.0104 36.529L35.7917 37.7172L36.0781 39.393L34.5714 38.6024L33.0647 39.393L33.3526 37.7172L32.1324 36.529L33.8188 36.2852L34.5714 34.7587Z" fill="#F0F5F9"/>
<path d="M5.36706 20.7249L6.12116 22.2498L7.80609 22.4951L6.58581 23.6818L6.87374 25.3592L5.36706 24.567L3.86038 25.3592L4.14831 23.6818L2.92804 22.4951L4.61296 22.2498L5.36706 20.7249Z" fill="#F0F5F9"/>
<path d="M15.1018 20.7249L15.8559 22.2498L17.5409 22.4951L16.3206 23.6818L16.6085 25.3592L15.1018 24.567L13.5952 25.3592L13.8831 23.6818L12.6628 22.4951L14.3477 22.2498L15.1018 20.7249Z" fill="#F0F5F9"/>
<path d="M24.8366 20.7249L25.5907 22.2498L27.2756 22.4951L26.0554 23.6818L26.3433 25.3592L24.8366 24.567L23.3299 25.3592L23.6179 23.6818L22.3976 22.4951L24.0825 22.2498L24.8366 20.7249Z" fill="#F0F5F9"/>
<path d="M20.2754 27.0806L21.0295 28.6056L22.7144 28.8509L21.4957 30.0376L21.7836 31.7149L20.2754 30.9227L18.7687 31.7149L19.0567 30.0376L17.8379 28.8509L19.5228 28.6056L20.2754 27.0806Z" fill="#F0F5F9"/>
<path d="M10.2345 27.0806L10.9886 28.6056L12.6735 28.8509L11.4532 30.0376L11.7411 31.7149L10.2345 30.9227L8.72778 31.7149L9.01571 30.0376L7.79544 28.8509L9.48036 28.6056L10.2345 27.0806Z" fill="#F0F5F9"/>
<path d="M5.36706 34.4632L6.12116 35.9882L7.80609 36.2334L6.58581 37.4202L6.87374 39.0975L5.36706 38.3053L3.86038 39.0975L4.14831 37.4202L2.92804 36.2334L4.61296 35.9882L5.36706 34.4632Z" fill="#F0F5F9"/>
<path d="M15.1018 34.4632L15.8559 35.9882L17.5409 36.2334L16.3206 37.4202L16.6085 39.0975L15.1018 38.3053L13.5952 39.0975L13.8831 37.4202L12.6628 36.2334L14.3477 35.9882L15.1018 34.4632Z" fill="#F0F5F9"/>
<path d="M24.8366 34.4632L25.5907 35.9882L27.2756 36.2334L26.0554 37.4202L26.3433 39.0975L24.8366 38.3053L23.3299 39.0975L23.6179 37.4202L22.3976 36.2334L24.0825 35.9882L24.8366 34.4632Z" fill="#F0F5F9"/>
<path opacity="0.12" d="M67.7259 7.46484H9.96785C9.16388 7.46484 8.36778 7.62322 7.62503 7.93094C6.88227 8.23865 6.20741 8.68967 5.63899 9.25823C5.07057 9.8268 4.61972 10.5018 4.31219 11.2446C4.00466 11.9874 3.84648 12.7836 3.84668 13.5875V46.2942C3.84864 46.9067 3.98168 47.5117 4.23685 48.0685C4.49203 48.6253 4.86344 49.121 5.32611 49.5223C5.78878 49.9237 6.332 50.2213 6.91925 50.3953C7.50651 50.5692 8.12421 50.6155 8.73082 50.5309C44.9673 45.665 62.7123 23.3482 69.8389 11.1379C70.0542 10.7663 70.1678 10.3446 70.1685 9.91514C70.1691 9.48572 70.0567 9.06368 69.8426 8.69145C69.6285 8.31923 69.3201 8.00991 68.9486 7.7946C68.577 7.57929 68.1554 7.46556 67.7259 7.46484Z" fill="white"/>
</svg>
